SplineFontDB: 3.2
FontName: Roga
FullName: Roga
FamilyName: Roga
Weight: Book
Copyright: Copyright ( c ) 2023, Viktor Kovacs, Andras Tisza\nCopyright ( c ) 2025, Viktor Kovacs "Halomhazi"
Version: 3.500; Junius 12, 2025
ItalicAngle: 0
UnderlinePosition: -125
UnderlineWidth: 50
Ascent: 800
Descent: 200
InvalidEm: 0
sfntRevision: 0x00010000
LayerCount: 2
Layer: 0 1 "Back" 1
Layer: 1 1 "Fore" 0
XUID: [1021 1016 1842912570 12964451]
StyleMap: 0x0000
FSType: 0
OS2Version: 4
OS2_WeightWidthSlopeOnly: 1
OS2_UseTypoMetrics: 1
CreationTime: 1545818743
ModificationTime: 1749741389
PfmFamily: 33
TTFWeight: 400
TTFWidth: 5
LineGap: 269
VLineGap: 0
Panose: 2 0 5 3 0 0 0 0 0 0
OS2TypoAscent: 801
OS2TypoAOffset: 0
OS2TypoDescent: -80
OS2TypoDOffset: 0
OS2TypoLinegap: 100
OS2WinAscent: 801
OS2WinAOffset: 0
OS2WinDescent: 80
OS2WinDOffset: 0
HheadAscent: 801
HheadAOffset: 0
HheadDescent: -80
HheadDOffset: 0
OS2SubXSize: 700
OS2SubYSize: 650
OS2SubXOff: 0
OS2SubYOff: 150
OS2SupXSize: 700
OS2SupYSize: 650
OS2SupXOff: 0
OS2SupYOff: 450
OS2StrikeYSize: 50
OS2StrikeYPos: 259
OS2CapHeight: 700
OS2XHeight: 500
OS2Vendor: 'roga'
OS2CodePages: 00000001.00000000
OS2UnicodeRanges: 80000001.02000000.00000000.00000000
Lookup: 1 0 0 "'smcp' Lowercase to Small Capitals in Greek lookup 0" { "'smcp' Lowercase to Small Capitals in Greek lookup 0 subtable"  } ['smcp' ('DFLT' <'dflt' > 'grek' <'dflt' > ) ]
Lookup: 1 0 0 "'c2sc' Capitals to Small Capitals in Greek lookup 0" { "'c2sc' Capitals to Small Capitals in Greek lookup 0 subtable"  } ['c2sc' ('DFLT' <'dflt' > 'grek' <'dflt' > ) ]
MarkAttachClasses: 1
DEI: 91125
ShortTable: maxp 16
  1
  0
  123
  73
  5
  0
  0
  1
  0
  0
  0
  0
  0
  0
  0
  0
EndShort

StartChar: .notdef
Encoding: 1114112 -1 0
Width: 416
GlyphClass: 1
Flags: W
LayerCount: 2
Fore
SplineSet
75 667 m 1,0,-1
 341 667 l 1,1,-1
 341 0 l 1,2,-1
 75 0 l 1,3,-1
 75 667 l 1,0,-1
308 33 m 1,4,-1
 308 633 l 1,5,-1
 108 633 l 1,6,-1
 108 33 l 1,7,-1
 308 33 l 1,4,-1
EndSplineSet
Validated: 1
EndChar

StartChar: uni201F
Encoding: 8223 8223 3
Width: 445
GlyphClass: 2
Flags: W
LayerCount: 2
Fore
SplineSet
259 800 m 1,0,-1
 352 801 l 1,1,-1
 352 710 l 1,2,-1
 306 710 l 1,3,-1
 320 669 l 1,4,-1
 351 631 l 1,5,-1
 306 631 l 1,6,-1
 274 669 l 1,7,-1
 259 710 l 1,8,-1
 259 800 l 1,0,-1
93 799 m 1,9,-1
 186 800 l 1,10,-1
 186 710 l 1,11,-1
 139 710 l 1,12,-1
 154 669 l 1,13,-1
 185 630 l 1,14,-1
 139 630 l 1,15,-1
 108 669 l 1,16,-1
 93 710 l 1,17,-1
 93 799 l 1,9,-1
EndSplineSet
Validated: 1
EndChar

StartChar: ellipsis
Encoding: 8230 8230 4
Width: 666
GlyphClass: 2
Flags: W
LayerCount: 2
Fore
SplineSet
603 0 m 1,0,-1
 477 0 l 1,1,-1
 477 120 l 1,2,-1
 603 121 l 1,3,-1
 603 0 l 1,0,-1
396 0 m 1,4,-1
 282 0 l 1,5,-1
 282 120 l 1,6,-1
 396 120 l 1,7,-1
 396 0 l 1,4,-1
189 0 m 1,8,-1
 63 0 l 1,9,-1
 63 119 l 1,10,-1
 189 120 l 1,11,-1
 189 0 l 1,8,-1
EndSplineSet
Validated: 1
EndChar

StartChar: exclamdbl
Encoding: 8252 8252 5
Width: 465
GlyphClass: 2
Flags: W
LayerCount: 2
Fore
SplineSet
279 688 m 1,0,-1
 372 688 l 1,1,-1
 372 192 l 1,2,-1
 279 193 l 1,3,-1
 279 688 l 1,0,-1
372 0 m 1,4,-1
 279 0 l 1,5,-1
 279 89 l 1,6,-1
 372 90 l 1,7,-1
 372 0 l 1,4,-1
93 688 m 1,8,-1
 186 688 l 1,9,-1
 186 192 l 1,10,-1
 93 193 l 1,11,-1
 93 688 l 1,8,-1
186 0 m 1,12,-1
 93 0 l 1,13,-1
 93 89 l 1,14,-1
 186 90 l 1,15,-1
 186 0 l 1,12,-1
EndSplineSet
Validated: 1
EndChar

StartChar: uni204F
Encoding: 8271 8271 6
Width: 279
GlyphClass: 2
Flags: W
LayerCount: 2
Fore
SplineSet
93 89 m 1,0,-1
 186 90 l 1,1,-1
 186 0 l 1,2,-1
 139 0 l 1,3,-1
 154 -41 l 1,4,-1
 185 -80 l 1,5,-1
 139 -80 l 1,6,-1
 108 -41 l 1,7,-1
 93 0 l 1,8,-1
 93 89 l 1,0,-1
186 396 m 1,9,-1
 93 396 l 1,10,-1
 93 485 l 1,11,-1
 186 486 l 1,12,-1
 186 396 l 1,9,-1
EndSplineSet
Validated: 1
EndChar

StartChar: uni2E2E
Encoding: 11822 11822 7
Width: 664
GlyphClass: 2
Flags: W
LayerCount: 2
Fore
SplineSet
395 0 m 1,0,-1
 300 0 l 1,1,-1
 300 89 l 1,2,-1
 395 90 l 1,3,-1
 395 0 l 1,0,-1
155 646 m 0,5,6
 218 698 218 698 327 698 c 0,7,8
 431 698 431 698 494 646 c 0,9,10
 558 594 558 594 571 498 c 1,11,-1
 481 492 l 1,12,13
 475 552 475 552 434 586 c 0,14,15
 394 620 394 620 326 620 c 256,16,17
 258 620 258 620 220 588 c 0,18,19
 181 556 181 556 181 500 c 0,20,21
 181 471 181 471 190 450 c 256,22,23
 199 429 199 429 214 411 c 0,24,25
 230 393 230 393 248 380 c 0,26,27
 268 365 268 365 286 353 c 0,28,29
 304 340 304 340 325 323 c 0,30,31
 344 308 344 308 359 288 c 0,32,33
 375 268 375 268 384 243 c 0,34,35
 394 217 394 217 394 184 c 1,36,-1
 300 184 l 1,37,38
 299 226 299 226 287 245 c 0,39,40
 267 278 267 278 239 299 c 2,41,-1
 200 328 l 2,42,43
 155 361 155 361 134 385 c 0,44,45
 114 409 114 409 103 438 c 0,46,47
 93 466 93 466 93 504 c 0,48,4
 93 595 93 595 155 646 c 0,5,6
EndSplineSet
Validated: 1
EndChar

StartChar: uni2E41
Encoding: 11841 11841 8
Width: 279
GlyphClass: 2
Flags: W
LayerCount: 2
Fore
SplineSet
93 89 m 1,0,-1
 186 90 l 1,1,-1
 186 0 l 1,2,-1
 139 0 l 1,3,-1
 154 -41 l 1,4,-1
 185 -80 l 1,5,-1
 139 -80 l 1,6,-1
 108 -41 l 1,7,-1
 93 0 l 1,8,-1
 93 89 l 1,0,-1
EndSplineSet
Validated: 1
EndChar

StartChar: uni2E42
Encoding: 11842 11842 9
Width: 445
GlyphClass: 2
Flags: W
LayerCount: 2
Fore
SplineSet
259 90 m 1,0,-1
 352 91 l 1,1,-1
 352 0 l 1,2,-1
 306 0 l 1,3,-1
 320 -41 l 1,4,-1
 351 -79 l 1,5,-1
 306 -79 l 1,6,-1
 274 -41 l 1,7,-1
 259 0 l 1,8,-1
 259 90 l 1,0,-1
93 89 m 1,9,-1
 186 90 l 1,10,-1
 186 0 l 1,11,-1
 139 0 l 1,12,-1
 154 -41 l 1,13,-1
 185 -80 l 1,14,-1
 139 -80 l 1,15,-1
 108 -41 l 1,16,-1
 93 0 l 1,17,-1
 93 89 l 1,9,-1
EndSplineSet
Validated: 1
EndChar

StartChar: u10C80
Encoding: 68736 68736 10
Width: 427
GlyphClass: 2
Flags: W
LayerCount: 2
Fore
SplineSet
60 501 m 1,0,-1
 282 713 l 1,1,-1
 365 713 l 1,2,-1
 367 -1 l 1,3,-1
 279 -1 l 1,4,-1
 279 387 l 1,5,-1
 60 385 l 1,6,-1
 60 501 l 1,0,-1
279 625 m 1,7,-1
 121 458 l 1,8,-1
 279 462 l 1,9,-1
 279 625 l 1,7,-1
EndSplineSet
Validated: 1
Substitution2: "'c2sc' Capitals to Small Capitals in Greek lookup 0 subtable" u10CC0
EndChar

StartChar: u10C81
Encoding: 68737 68737 11
Width: 439
GlyphClass: 2
Flags: W
LayerCount: 2
Fore
SplineSet
80 541 m 1,0,-1
 282 713 l 1,1,-1
 365 713 l 1,2,-1
 367 -1 l 1,3,-1
 279 -1 l 1,4,-1
 279 287 l 1,5,-1
 80 455 l 1,6,-1
 80 541 l 1,0,-1
279 625 m 1,7,-1
 131 498 l 1,8,-1
 279 372 l 1,9,-1
 279 625 l 1,7,-1
EndSplineSet
Validated: 1
Substitution2: "'c2sc' Capitals to Small Capitals in Greek lookup 0 subtable" u10CC1
EndChar

StartChar: u10C82
Encoding: 68738 68738 12
Width: 492
GlyphClass: 2
Flags: W
LayerCount: 2
Fore
SplineSet
251 281 m 1,0,-1
 107 1 l 1,1,-1
 7 1 l 1,2,-1
 202 378 l 1,3,-1
 35 701 l 1,4,-1
 135 701 l 1,5,-1
 252 475 l 1,6,-1
 368 700 l 1,7,-1
 467 700 l 1,8,-1
 301 378 l 1,9,-1
 496 1 l 1,10,-1
 396 1 l 1,11,-1
 251 281 l 1,0,-1
EndSplineSet
Validated: 1
Substitution2: "'c2sc' Capitals to Small Capitals in Greek lookup 0 subtable" u10CC2
EndChar

StartChar: u10C83
Encoding: 68739 68739 13
Width: 1018
GlyphClass: 2
Flags: W
LayerCount: 2
Fore
SplineSet
464 14.18359375 m 1,0,1
 429 36.7626953125 429 36.7626953125 398 59.341796875 c 128,-1,2
 367 81.9208984375 367 81.9208984375 341 104.5 c 1,3,-1
 251 14.9892578125 l 1,4,-1
 55 85.9521484375 l 1,5,-1
 85 146.432617188 l 1,6,-1
 226 91.59765625 l 1,7,-1
 288 158.529296875 l 1,8,9
 251 202.07421875 251 202.07421875 231 250.861328125 c 128,-1,10
 211 299.649414062 211 299.649414062 211 356.096679688 c 0,11,12
 211 413.350585938 211 413.350585938 231 462.138671875 c 128,-1,13
 251 510.92578125 251 510.92578125 288 555.27734375 c 1,14,-1
 226 621.40234375 l 1,15,-1
 85 566.567382812 l 1,16,-1
 55 627.853515625 l 1,17,-1
 251 698.010742188 l 1,18,-1
 341 608.5 l 1,19,20
 367 631.885742188 367 631.885742188 398 654.46484375 c 128,-1,21
 429 677.043945312 429 677.043945312 463 698.81640625 c 1,22,-1
 557 698.81640625 l 1,23,24
 592 677.043945312 592 677.043945312 622 655.270507812 c 128,-1,25
 652 633.498046875 652 633.498046875 678 610.112304688 c 1,26,-1
 765 698.010742188 l 1,27,-1
 963 627.853515625 l 1,28,-1
 931 566.567382812 l 1,29,-1
 791 621.40234375 l 1,30,-1
 731 556.890625 l 1,31,32
 769 512.538085938 769 512.538085938 789 462.944335938 c 128,-1,33
 809 413.350585938 809 413.350585938 809 356.096679688 c 256,34,35
 809 298.842773438 809 298.842773438 789 249.65234375 c 128,-1,36
 769 200.461914062 769 200.461914062 731 156.109375 c 1,37,-1
 791 91.59765625 l 1,38,-1
 931 146.432617188 l 1,39,-1
 963 85.9521484375 l 1,40,-1
 765 14.9892578125 l 1,41,-1
 678 102.887695312 l 1,42,43
 652 80.3076171875 652 80.3076171875 622 58.1318359375 c 128,-1,44
 592 35.9560546875 592 35.9560546875 557 14.18359375 c 1,45,-1
 464 14.18359375 l 1,0,1
508 69.3642578125 m 1,46,-1
 512 69.3642578125 l 1,47,48
 581 117.748046875 581 117.748046875 626 160.890625 c 128,-1,49
 671 204.032226562 671 204.032226562 693.5 250.401367188 c 128,-1,50
 716 296.76953125 716 296.76953125 716 353.216796875 c 0,51,52
 716 410.470703125 716 410.470703125 693.5 456.838867188 c 128,-1,53
 671 503.20703125 671 503.20703125 626 546.752929688 c 128,-1,54
 581 590.298828125 581 590.298828125 512 638.682617188 c 1,55,-1
 508 638.682617188 l 1,56,57
 440 590.298828125 440 590.298828125 394.5 546.752929688 c 128,-1,58
 349 503.20703125 349 503.20703125 326.5 456.838867188 c 128,-1,59
 304 410.470703125 304 410.470703125 304 353.216796875 c 0,60,61
 304 296.76953125 304 296.76953125 326.5 250.401367188 c 128,-1,62
 349 204.032226562 349 204.032226562 394.5 160.890625 c 128,-1,63
 440 117.748046875 440 117.748046875 508 69.3642578125 c 1,46,-1
EndSplineSet
Validated: 1
Substitution2: "'c2sc' Capitals to Small Capitals in Greek lookup 0 subtable" u10CC3
EndChar

StartChar: u10C84
Encoding: 68740 68740 14
Width: 592
GlyphClass: 2
Flags: W
LayerCount: 2
Fore
SplineSet
159 521 m 1,0,-1
 60 511 l 1,1,-1
 250 714 l 1,2,-1
 342 714 l 1,3,-1
 532 511 l 1,4,-1
 434 521 l 1,5,-1
 343 617 l 1,6,-1
 340 0 l 1,7,-1
 247 0 l 1,8,-1
 250 616 l 1,9,-1
 159 521 l 1,0,-1
EndSplineSet
Validated: 1
Substitution2: "'c2sc' Capitals to Small Capitals in Greek lookup 0 subtable" u10CC4
EndChar

StartChar: u10C85
Encoding: 68741 68741 15
Width: 590
GlyphClass: 2
Flags: W
LayerCount: 2
Fore
SplineSet
263 0 m 1,0,-1
 60 205 l 1,1,-1
 159 195 l 1,2,-1
 250 100 l 1,3,-1
 250 616 l 1,4,-1
 159 521 l 1,5,-1
 60 511 l 1,6,-1
 263 714 l 1,7,-1
 327 714 l 1,8,-1
 530 511 l 1,9,-1
 432 521 l 1,10,-1
 340 617 l 1,11,-1
 340 99 l 1,12,-1
 432 195 l 1,13,-1
 530 205 l 1,14,-1
 327 0 l 1,15,-1
 263 0 l 1,0,-1
EndSplineSet
Validated: 1
Substitution2: "'c2sc' Capitals to Small Capitals in Greek lookup 0 subtable" u10CC5
EndChar

StartChar: u10C86
Encoding: 68742 68742 16
Width: 593
GlyphClass: 2
Flags: W
LayerCount: 2
Fore
SplineSet
439 372 m 1,0,-1
 439 569 l 1,1,-1
 147 355 l 1,2,-1
 147 158 l 1,3,-1
 439 372 l 1,0,-1
439 653 m 1,4,-1
 439 708 l 1,5,-1
 529 708 l 1,6,-1
 529 -6 l 1,7,-1
 439 -6 l 1,8,-1
 439 289 l 1,9,-1
 147 75 l 1,10,-1
 147 -1 l 1,11,-1
 57 -1 l 1,12,-1
 57 713 l 1,13,-1
 147 713 l 1,14,-1
 147 438 l 1,15,-1
 439 653 l 1,4,-1
EndSplineSet
Validated: 1
Substitution2: "'c2sc' Capitals to Small Capitals in Greek lookup 0 subtable" u10CC6
EndChar

StartChar: u10C87
Encoding: 68743 68743 17
Width: 433
GlyphClass: 2
Flags: W
LayerCount: 2
Fore
SplineSet
164 386 m 1,0,-1
 164 714 l 1,1,-1
 255 714 l 1,2,-1
 254 445 l 1,3,-1
 375 524 l 1,4,-1
 375 443 l 1,5,-1
 254 364 l 1,6,-1
 253 0 l 1,7,-1
 164 0 l 1,8,-1
 164 305 l 1,9,-1
 56 234 l 1,10,-1
 56 315 l 1,11,-1
 164 386 l 1,0,-1
EndSplineSet
Validated: 1
Substitution2: "'c2sc' Capitals to Small Capitals in Greek lookup 0 subtable" u10CC7
EndChar

StartChar: u10C88
Encoding: 68744 68744 18
Width: 470
GlyphClass: 2
Flags: W
LayerCount: 2
Fore
SplineSet
315 359 m 1,0,-1
 497 0 l 1,1,-1
 395 0 l 1,2,-1
 254 290 l 1,3,-1
 111 0 l 1,4,-1
 15 0 l 1,5,-1
 160 286 l 1,6,-1
 162 291 l 1,7,-1
 35 235 l 1,8,-1
 35 309 l 1,9,-1
 199 381 l 1,10,-1
 27 714 l 1,11,-1
 127 714 l 1,12,-1
 257 454 l 1,13,-1
 387 714 l 1,14,-1
 483 714 l 1,15,-1
 356 469 l 1,16,-1
 344 444 l 1,17,-1
 459 495 l 1,18,-1
 459 422 l 1,19,-1
 315 359 l 1,0,-1
EndSplineSet
Validated: 1
Substitution2: "'c2sc' Capitals to Small Capitals in Greek lookup 0 subtable" u10CC8
EndChar

StartChar: u10C89
Encoding: 68745 68745 19
Width: 563
GlyphClass: 2
Flags: W
LayerCount: 2
Fore
SplineSet
137 -3.7734375 m 5,0,-1
 86 52.78515625 l 5,1,2
 129 74.2939453125 129 74.2939453125 164.5 94.208984375 c 132,-1,3
 200 114.124023438 200 114.124023438 228 133.241210938 c 5,4,-1
 98 222.4609375 l 5,5,-1
 153 269.458984375 l 5,6,-1
 287 177.0546875 l 5,7,8
 334 217.680664062 334 217.680664062 354 259.900390625 c 132,-1,9
 374 302.119140625 374 302.119140625 374 353.1015625 c 4,10,11
 374 404.880859375 374 404.880859375 353.5 446.701171875 c 132,-1,12
 333 488.522460938 333 488.522460938 283 530.7421875 c 5,13,-1
 153 440.727539062 l 5,14,-1
 98 488.522460938 l 5,15,-1
 224 574.5546875 l 5,16,17
 195 593.672851562 195 593.672851562 159.5 614.383789062 c 132,-1,18
 124 635.096679688 124 635.096679688 81 657.400390625 c 5,19,-1
 142 710.7734375 l 5,20,21
 187 687.671875 187 687.671875 224.5 665.765625 c 132,-1,22
 262 643.858398438 262 643.858398438 293 622.350585938 c 5,23,-1
 418 708.3828125 l 5,24,-1
 467 658.197265625 l 5,25,-1
 352 578.538085938 l 5,26,27
 415 525.165039062 415 525.165039062 441.5 471.396484375 c 132,-1,28
 468 417.625976562 468 417.625976562 468 353.1015625 c 4,29,30
 468 289.374023438 468 289.374023438 442 236.001953125 c 132,-1,31
 416 182.629882812 416 182.629882812 354 130.852539062 c 5,32,-1
 467 52.78515625 l 5,33,-1
 418 2.6005859375 l 5,34,-1
 295 87.0380859375 l 5,35,36
 263 65.53125 263 65.53125 223.5 42.828125 c 132,-1,37
 184 20.1259765625 184 20.1259765625 137 -3.7734375 c 5,0,-1
EndSplineSet
Validated: 1
Substitution2: "'c2sc' Capitals to Small Capitals in Greek lookup 0 subtable" u10CC9
EndChar

StartChar: u10C8A
Encoding: 68746 68746 20
Width: 586
GlyphClass: 2
Flags: W
LayerCount: 2
Fore
SplineSet
150 -5 m 5,0,-1
 98 52 l 5,1,2
 136 71 136 71 168 88.5 c 132,-1,3
 200 106 200 106 227 123 c 5,4,5
 160 177 160 177 131 232.5 c 132,-1,6
 102 288 102 288 102 353 c 260,7,8
 102 418 102 418 130.5 473.5 c 132,-1,9
 159 529 159 529 226 582 c 5,10,11
 198 600 198 600 165 619 c 132,-1,12
 132 638 132 638 93 658 c 5,13,-1
 154 712 l 5,14,15
 236 670 236 670 293 632 c 5,16,17
 350 670 350 670 432 712 c 5,18,-1
 493 658 l 5,19,20
 454 638 454 638 421 619.5 c 132,-1,21
 388 601 388 601 361 583 c 5,22,23
 427 529 427 529 455.5 474 c 132,-1,24
 484 419 484 419 484 353 c 4,25,26
 484 288 484 288 455.5 232.5 c 132,-1,27
 427 177 427 177 359 123 c 5,28,29
 386 106 386 106 418.5 88.5 c 132,-1,30
 451 71 451 71 488 52 c 5,31,-1
 436 -5 l 5,32,33
 395 17 395 17 359 37 c 132,-1,34
 323 57 323 57 293 76 c 5,35,36
 263 57 263 57 227 37 c 132,-1,37
 191 17 191 17 150 -5 c 5,0,-1
293 170 m 5,38,39
 345 212 345 212 367.5 256 c 132,-1,40
 390 300 390 300 390 353 c 260,41,42
 390 406 390 406 368 448.5 c 132,-1,43
 346 491 346 491 293 534 c 5,44,45
 240 491 240 491 218 448.5 c 132,-1,46
 196 406 196 406 196 353 c 260,47,48
 196 300 196 300 218.5 256 c 132,-1,49
 241 212 241 212 293 170 c 5,38,39
EndSplineSet
Validated: 1
Substitution2: "'c2sc' Capitals to Small Capitals in Greek lookup 0 subtable" u10CCA
EndChar

StartChar: u10C8B
Encoding: 68747 68747 21
Width: 512
GlyphClass: 2
InSpiro: 1
Flags: W
LayerCount: 2
Fore
SplineSet
280 -20.36328125 m 1,0,-1
 88 114.305664062 l 1,1,2
 174 155.432617188 174 155.432617188 228.5 192.526367188 c 128,-1,3
 283 229.62109375 283 229.62109375 309.5 267.924804688 c 128,-1,4
 336 306.229492188 336 306.229492188 336 353 c 0,5,6
 336 400.577148438 336 400.577148438 310 438.881835938 c 128,-1,7
 284 477.185546875 284 477.185546875 229 513.876953125 c 128,-1,8
 174 550.567382812 174 550.567382812 88 592.500976562 c 1,9,-1
 280 726.36328125 l 1,10,-1
 338 671.52734375 l 1,11,-1
 231 599.758789062 l 1,12,13
 337 540.890625 337 540.890625 383.5 483.233398438 c 128,-1,14
 430 425.575195312 430 425.575195312 430 353 c 0,15,16
 430 282.037109375 430 282.037109375 383.5 224.37890625 c 128,-1,17
 337 166.721679688 337 166.721679688 231 107.047851562 c 1,18,-1
 338 35.2783203125 l 1,19,-1
 280 -20.36328125 l 1,0,-1
  Spiro
    280 -20.3631 v
    88 114.306 v
    166.125 154.424 o
    228.5 192.526 o
    276 229.923 o
    309.5 267.925 o
    329.375 308.346 o
    336 353 o
    329.5 398.259 o
    310 438.882 o
    276.75 476.783 o
    229 513.877 o
    166.25 551.878 o
    88 592.501 v
    280 726.363 v
    338 671.528 v
    231 599.758 v
    322.125 541.194 o
    383.5 483.234 o
    418.375 421.846 o
    430 353 o
    418.375 285.363 o
    383.5 224.379 o
    322.125 166.217 o
    231 107.048 v
    338 35.2784 v
    0 0 z
  EndSpiro
EndSplineSet
Validated: 1
Substitution2: "'c2sc' Capitals to Small Capitals in Greek lookup 0 subtable" u10CCB
EndChar

StartChar: u10C8C
Encoding: 68748 68748 22
Width: 605
GlyphClass: 2
Flags: W
LayerCount: 2
Fore
SplineSet
261 0 m 1,0,1
 162 76 162 76 111 160.5 c 128,-1,2
 60 245 60 245 60 357 c 256,3,4
 60 469 60 469 111 553.5 c 128,-1,5
 162 638 162 638 261 714 c 1,6,-1
 344 714 l 1,7,8
 442 638 442 638 493.5 553.5 c 128,-1,9
 545 469 545 469 545 357 c 256,10,11
 545 245 545 245 493.5 160.5 c 128,-1,12
 442 76 442 76 344 0 c 1,13,-1
 261 0 l 1,0,1
301 650 m 1,14,15
 247.571428571 596.571428571 247.571428571 596.571428571 209 543 c 1,16,-1
 302 418 l 1,17,-1
 396 542 l 1,18,19
 364.893203883 586.932038835 364.893203883 586.932038835 304 650 c 1,20,-1
 301 650 l 1,14,15
256 355 m 1,21,-1
 170 471 l 1,22,23
 151 419 151 419 151 356.5 c 128,-1,24
 151 294 151 294 170 242 c 1,25,-1
 256 355 l 1,21,-1
435 243 m 1,26,27
 454 295 454 295 454 356.5 c 128,-1,28
 454 418 454 418 435 470 c 1,29,-1
 349 355 l 1,30,-1
 435 243 l 1,26,27
304 64 m 1,31,32
 361 119 361 119 395 167 c 1,33,-1
 302 291 l 1,34,-1
 210 167 l 1,35,36
 244 119 244 119 301 64 c 1,37,-1
 304 64 l 1,31,32
EndSplineSet
Validated: 1
Substitution2: "'c2sc' Capitals to Small Capitals in Greek lookup 0 subtable" u10CCC
EndChar

StartChar: u10C8D
Encoding: 68749 68749 23
Width: 574
GlyphClass: 2
Flags: W
LayerCount: 2
Fore
SplineSet
213 -1 m 1,0,-1
 343 400 l 1,1,-1
 284 578 l 1,2,-1
 95 1 l 1,3,-1
 2 1 l 1,4,-1
 237 715 l 1,5,-1
 332 716 l 1,6,-1
 567 1 l 1,7,-1
 474 1 l 1,8,-1
 378 292 l 1,9,-1
 284 -1 l 1,10,-1
 213 -1 l 1,0,-1
EndSplineSet
Validated: 1
Substitution2: "'c2sc' Capitals to Small Capitals in Greek lookup 0 subtable" u10CCD
EndChar

StartChar: u10C8E
Encoding: 68750 68750 24
Width: 465
GlyphClass: 2
Flags: W
LayerCount: 2
Fore
SplineSet
274 330 m 1,0,-1
 405 433 l 1,1,-1
 405 346 l 1,2,-1
 273 243 l 1,3,-1
 271 0 l 1,4,-1
 181 0 l 1,5,-1
 181 177 l 1,6,-1
 60 92 l 1,7,-1
 60 179 l 1,8,-1
 181 267 l 1,9,-1
 181 397 l 1,10,-1
 60 312 l 1,11,-1
 60 389 l 1,12,-1
 181 477 l 1,13,-1
 181 714 l 1,14,-1
 271 714 l 1,15,-1
 272 550 l 1,16,-1
 405 643 l 1,17,-1
 405 556 l 1,18,-1
 273 462 l 1,19,-1
 274 330 l 1,0,-1
EndSplineSet
Validated: 1
Substitution2: "'c2sc' Capitals to Small Capitals in Greek lookup 0 subtable" u10CCE
EndChar

StartChar: u10C8F
Encoding: 68751 68751 25
Width: 550
GlyphClass: 2
Flags: W
LayerCount: 2
Fore
SplineSet
275 247 m 1,0,-1
 367 357 l 1,1,-1
 275 470 l 1,2,-1
 183 357 l 1,3,-1
 275 247 l 1,0,-1
215 529 m 1,4,-1
 67 714 l 1,5,-1
 175 714 l 1,6,-1
 275 599 l 1,7,-1
 375 714 l 1,8,-1
 482 714 l 1,9,-1
 334 539 l 1,10,-1
 477 358 l 1,11,-1
 334 183 l 1,12,-1
 490 0 l 1,13,-1
 372 0 l 1,14,-1
 275 123 l 1,15,-1
 167 0 l 1,16,-1
 60 0 l 1,17,-1
 215 183 l 1,18,-1
 73 357 l 1,19,-1
 215 529 l 1,4,-1
EndSplineSet
Validated: 1
Substitution2: "'c2sc' Capitals to Small Capitals in Greek lookup 0 subtable" u10CCF
EndChar

StartChar: u10C90
Encoding: 68752 68752 26
Width: 465
GlyphClass: 2
Flags: W
LayerCount: 2
Fore
SplineSet
271 538 m 1,0,-1
 271 0 l 1,1,-1
 181 0 l 1,2,-1
 181 478 l 1,3,-1
 60 397 l 1,4,-1
 60 483 l 1,5,-1
 181 564 l 1,6,-1
 181 714 l 1,7,-1
 271 714 l 1,8,-1
 271 624 l 1,9,-1
 407 715 l 1,10,-1
 407 629 l 1,11,-1
 271 538 l 1,0,-1
EndSplineSet
Validated: 1
Substitution2: "'c2sc' Capitals to Small Capitals in Greek lookup 0 subtable" u10CD0
EndChar

StartChar: u10C91
Encoding: 68753 68753 27
Width: 465
GlyphClass: 2
Flags: W
LayerCount: 2
Fore
SplineSet
386 701 m 1,0,-1
 404 714 l 1,1,-1
 404 713 l 1,2,-1
 407 715 l 1,3,-1
 407 629 l 1,4,-1
 273 539 l 1,5,-1
 271 0 l 1,6,-1
 181 0 l 1,7,-1
 181 478 l 1,8,-1
 60 397 l 1,9,-1
 60 483 l 1,10,-1
 386 701 l 1,0,-1
EndSplineSet
Validated: 1
Substitution2: "'c2sc' Capitals to Small Capitals in Greek lookup 0 subtable" u10CD1
EndChar

StartChar: u10C92
Encoding: 68754 68754 28
Width: 391
GlyphClass: 2
Flags: W
LayerCount: 2
Fore
SplineSet
60 538 m 1,0,-1
 252 713 l 1,1,-1
 331 714 l 1,2,-1
 329 0 l 1,3,-1
 239 0 l 1,4,-1
 239 604 l 1,5,-1
 60 447 l 1,6,-1
 60 538 l 1,0,-1
EndSplineSet
Validated: 1
Substitution2: "'c2sc' Capitals to Small Capitals in Greek lookup 0 subtable" u10CD2
EndChar

StartChar: u10C93
Encoding: 68755 68755 29
Width: 547
GlyphClass: 2
Flags: W
LayerCount: 2
Fore
SplineSet
380 359 m 1,0,-1
 262 608 l 1,1,-1
 156 361 l 1,2,-1
 272 112 l 1,3,-1
 380 359 l 1,0,-1
223 7 m 1,4,-1
 57 365 l 1,5,-1
 220 721 l 1,6,-1
 314 721 l 1,7,-1
 474 359 l 1,8,-1
 317 7 l 1,9,-1
 223 7 l 1,4,-1
EndSplineSet
Validated: 1
Substitution2: "'c2sc' Capitals to Small Capitals in Greek lookup 0 subtable" u10CD3
EndChar

StartChar: u10C94
Encoding: 68756 68756 30
Width: 594
GlyphClass: 2
Flags: W
LayerCount: 2
Fore
SplineSet
350 0 m 1,0,-1
 263 1 l 1,1,-1
 257 575 l 1,2,-1
 144 413 l 1,3,-1
 59 413 l 1,4,-1
 260 715 l 1,5,-1
 348 714 l 1,6,-1
 348 139 l 1,7,-1
 479 322 l 1,8,-1
 564 323 l 1,9,-1
 350 0 l 1,0,-1
EndSplineSet
Validated: 1
Substitution2: "'c2sc' Capitals to Small Capitals in Greek lookup 0 subtable" u10CD4
EndChar

StartChar: u10C95
Encoding: 68757 68757 31
Width: 588
GlyphClass: 2
Flags: W
LayerCount: 2
Fore
SplineSet
7 1 m 1,0,-1
 9 5 l 1,1,-1
 -33 92 l 1,2,-1
 -35 191 l 1,3,-1
 52 89 l 1,4,-1
 202 378 l 1,5,-1
 79 616 l 1,6,-1
 -8 514 l 1,7,-1
 -6 613 l 1,8,-1
 36 699 l 1,9,-1
 35 701 l 1,10,-1
 37 701 l 1,11,-1
 38 703 l 1,12,-1
 39 701 l 1,13,-1
 135 701 l 1,14,-1
 252 475 l 1,15,-1
 368 700 l 1,16,-1
 464 700 l 1,17,-1
 466 703 l 1,18,-1
 510 613 l 1,19,-1
 512 514 l 1,20,-1
 424 617 l 1,21,-1
 301 378 l 1,22,-1
 452 87 l 1,23,-1
 541 191 l 1,24,-1
 539 92 l 1,25,-1
 495 2 l 1,26,-1
 496 1 l 1,27,-1
 396 1 l 1,28,-1
 251 281 l 1,29,-1
 107 1 l 1,30,-1
 7 1 l 1,0,-1
EndSplineSet
Validated: 1
Substitution2: "'c2sc' Capitals to Small Capitals in Greek lookup 0 subtable" u10CD5
EndChar

StartChar: u10C96
Encoding: 68758 68758 32
Width: 564
GlyphClass: 2
Flags: W
LayerCount: 2
Fore
SplineSet
349 358 m 1,0,-1
 227 -1 l 1,1,-1
 161 -1 l 1,2,-1
 315 449 l 1,3,-1
 273 578 l 1,4,-1
 84 1 l 1,5,-1
 -9 1 l 1,6,-1
 226 715 l 1,7,-1
 228 715 l 1,8,-1
 228 716 l 1,9,-1
 321 716 l 1,10,-1
 556 1 l 1,11,-1
 463 1 l 1,12,-1
 418 151 l 1,13,-1
 369 1 l 1,14,-1
 303 1 l 1,15,-1
 383 242 l 1,16,-1
 349 358 l 1,0,-1
EndSplineSet
Validated: 1
Substitution2: "'c2sc' Capitals to Small Capitals in Greek lookup 0 subtable" u10CD6
EndChar

StartChar: u10C97
Encoding: 68759 68759 33
Width: 584
GlyphClass: 2
Flags: W
LayerCount: 2
Fore
SplineSet
245 0 m 1,0,1
 161 76 161 76 118 148 c 0,2,3
 60 245 60 245 60 357 c 256,4,5
 60 469 60 469 118 565 c 0,6,7
 162 638 162 638 245 714 c 1,8,-1
 319 714 l 1,9,10
 411 638 411 638 459 567 c 0,11,12
 524 469 524 469 524 357 c 128,-1,13
 524 245 524 245 460 149 c 0,14,15
 412 76 412 76 319 0 c 1,16,-1
 245 0 l 1,0,1
368 541 m 1,17,18
 338 591 338 591 284 650 c 1,19,-1
 282 650 l 1,20,21
 204 565 204 565 184.5 524 c 128,-1,22
 165 483 165 483 155.5 443 c 128,-1,23
 146 403 146 403 143 356.5 c 128,-1,24
 140 310 140 310 165 243 c 1,25,-1
 368 541 l 1,17,18
201 167 m 1,26,27
 227.454545455 122.909090909 227.454545455 122.909090909 282 64 c 1,28,-1
 284 64 l 1,29,30
 374 164 374 164 402 215 c 0,31,32
 460.365543898 321.308669244 460.365543898 321.308669244 411 477 c 1,33,-1
 201 167 l 1,26,27
EndSplineSet
Validated: 33
Substitution2: "'c2sc' Capitals to Small Capitals in Greek lookup 0 subtable" u10CD7
EndChar

StartChar: u10C98
Encoding: 68760 68760 34
Width: 455
GlyphClass: 2
Flags: W
LayerCount: 2
Fore
SplineSet
311 711 m 1,0,-1
 313 712 l 1,1,-1
 358 712 l 1,2,-1
 358 711 l 1,3,-1
 398 711 l 1,4,-1
 398 0 l 1,5,-1
 310 0 l 1,6,-1
 310 4 l 1,7,-1
 62 133 l 1,8,-1
 58 131 l 1,9,-1
 59 211 l 1,10,-1
 275 354 l 1,11,-1
 62 465 l 1,12,-1
 60 463 l 1,13,-1
 60 546 l 1,14,-1
 310 710 l 1,15,-1
 310 711 l 1,16,-1
 311 711 l 1,0,-1
310 629 m 1,17,-1
 127 509 l 1,18,-1
 310 414 l 1,19,-1
 310 629 l 1,17,-1
310 296 m 1,20,-1
 127 176 l 1,21,-1
 310 81 l 1,22,-1
 310 296 l 1,20,-1
EndSplineSet
Validated: 1
Substitution2: "'c2sc' Capitals to Small Capitals in Greek lookup 0 subtable" u10CD8
EndChar

StartChar: u10C99
Encoding: 68761 68761 35
Width: 410
GlyphClass: 2
Flags: W
LayerCount: 2
Fore
SplineSet
70 77 m 2,0,1
 255 77 255 77 255 356 c 128,-1,2
 255 635 255 635 82 635 c 2,3,-1
 60 635 l 1,4,-1
 60 717 l 1,5,6
 138 714 138 714 203 679 c 0,7,8
 288 634 288 634 322 548 c 0,9,10
 350 478 350 478 350 371 c 0,11,12
 350 181 350 181 262 83 c 0,13,14
 186 -2 186 -2 60 1 c 1,15,-1
 60 77 l 1,16,-1
 70 77 l 2,0,1
EndSplineSet
Validated: 33
Substitution2: "'c2sc' Capitals to Small Capitals in Greek lookup 0 subtable" u10CD9
EndChar

StartChar: u10C9A
Encoding: 68762 68762 36
Width: 500
GlyphClass: 2
Flags: W
LayerCount: 2
Fore
SplineSet
435 361 m 0,0,1
 435 183 435 183 358.5 91.5 c 128,-1,2
 282 0 282 0 146 0 c 2,3,-1
 65 0 l 1,4,-1
 65 714 l 1,5,-1
 162 714 l 2,6,7
 246 714 246 714 307.5 674 c 0,8,9
 435 591.073170732 435 591.073170732 435 361 c 0,0,1
155 77 m 2,10,11
 340 77 340 77 340 357 c 128,-1,12
 340 637 340 637 167 637 c 2,13,-1
 145 637 l 1,14,-1
 145 77 l 1,15,-1
 155 77 l 2,10,11
EndSplineSet
Validated: 1
Substitution2: "'c2sc' Capitals to Small Capitals in Greek lookup 0 subtable" u10CDA
EndChar

StartChar: u10C9B
Encoding: 68763 68763 37
Width: 634
GlyphClass: 2
Flags: W
LayerCount: 2
Fore
SplineSet
291 1.0556640625 m 1,0,-1
 135 126.850585938 l 1,1,-1
 197 176.041015625 l 1,2,-1
 299 89.7587890625 l 1,3,4
 359 132 359 132 395.5 171.206054688 c 0,5,6
 432 211 432 211 448.5 255.473632812 c 128,-1,7
 465 300 465 300 465 355.064453125 c 0,8,9
 465 408 465 408 448.5 451.026367188 c 128,-1,10
 432 494 432 494 394.5 539.5 c 128,-1,11
 357 585 357 585 291 631.176757812 c 5,12,-1
 179 552.958984375 l 5,13,-1
 125 602.149414062 l 1,14,-1
 291 717.944335938 l 1,15,16
 389 653 389 653 448 596.58203125 c 128,-1,17
 507 540 507 540 533 482.072265625 c 128,-1,18
 559 424 559 424 559 355.064453125 c 0,19,20
 559 280 559 280 529.5 220.798828125 c 0,21,22
 500 162 500 162 440.5 109.112304688 c 0,23,24
 381 57 381 57 291 1.0556640625 c 1,0,-1
EndSplineSet
Validated: 1
Substitution2: "'c2sc' Capitals to Small Capitals in Greek lookup 0 subtable" u10CDB
EndChar

StartChar: u10C9C
Encoding: 68764 68764 38
Width: 507
GlyphClass: 2
Flags: W
LayerCount: 2
Fore
SplineSet
241 1 m 1,0,-1
 28 228 l 1,1,-1
 182 414 l 1,2,-1
 239 349 l 1,3,-1
 141 234 l 1,4,-1
 250 114 l 1,5,6
 315 173 315 173 340.5 229 c 128,-1,7
 366 285 366 285 366 345 c 128,-1,8
 366 405 366 405 350 449.5 c 128,-1,9
 334 494 334 494 295 539.5 c 128,-1,10
 256 585 256 585 187 644 c 1,11,-1
 241 716 l 1,12,13
 391.521072797 588.636015326 391.521072797 588.636015326 431.5 476.5 c 0,14,15
 452 419 452 419 452 353 c 0,16,17
 452 247 452 247 400 166.5 c 128,-1,18
 348 86 348 86 241 1 c 1,0,-1
EndSplineSet
Validated: 1
Substitution2: "'c2sc' Capitals to Small Capitals in Greek lookup 0 subtable" u10CDC
EndChar

StartChar: u10C9D
Encoding: 68765 68765 39
Width: 380
GlyphClass: 2
Flags: W
LayerCount: 2
Fore
SplineSet
326 536 m 1,0,-1
 166 219 l 1,1,-1
 330 60 l 1,2,-1
 265 -2 l 1,3,-1
 60 216 l 1,4,-1
 220 536 l 1,5,-1
 88 661 l 1,6,-1
 145 713 l 1,7,-1
 326 536 l 1,0,-1
EndSplineSet
Validated: 1
Substitution2: "'c2sc' Capitals to Small Capitals in Greek lookup 0 subtable" u10CDD
EndChar

StartChar: u10C9E
Encoding: 68766 68766 40
Width: 484
GlyphClass: 2
Flags: W
LayerCount: 2
Fore
SplineSet
150 325 m 1,0,-1
 150 0 l 1,1,-1
 60 0 l 1,2,-1
 60 713 l 1,3,-1
 150 713 l 1,4,-1
 150 411 l 1,5,-1
 338 708 l 1,6,-1
 412 708 l 1,7,-1
 206 372 l 1,8,-1
 421 2 l 1,9,-1
 347 2 l 1,10,-1
 150 325 l 1,0,-1
EndSplineSet
Validated: 1
Substitution2: "'c2sc' Capitals to Small Capitals in Greek lookup 0 subtable" u10CDE
EndChar

StartChar: u10C9F
Encoding: 68767 68767 41
Width: 724
GlyphClass: 2
Flags: W
LayerCount: 2
Fore
SplineSet
314 1.0556640625 m 5,0,-1
 42 213.138671875 l 5,1,-1
 45 213.944335938 l 5,2,-1
 40 216.364257812 l 5,3,-1
 244 396.19140625 l 5,4,-1
 308 344.58203125 l 5,5,-1
 166 220.395507812 l 5,6,-1
 323 93.791015625 l 5,7,8
 355 117.176757812 355 117.176757812 380 139.352539062 c 132,-1,9
 405 161.529296875 405 161.529296875 424 184.107421875 c 5,10,-1
 367 225.234375 l 5,11,-1
 415 270.392578125 l 5,12,-1
 461 237.331054688 l 5,13,14
 488 290.552734375 488 290.552734375 488 351.838867188 c 4,15,16
 488 415.544921875 488 415.544921875 459 469.57421875 c 5,17,-1
 415 438.124023438 l 5,18,-1
 367 483.283203125 l 5,19,-1
 421 521.989257812 l 5,20,21
 393 552.6328125 393 552.6328125 352 586.098632812 c 132,-1,22
 311 619.564453125 311 619.564453125 254 658.270507812 c 5,23,-1
 314 717.944335938 l 5,24,25
 372 678.430664062 372 678.430664062 416 642.94921875 c 132,-1,26
 460 607.467773438 460 607.467773438 491 572.79296875 c 5,27,-1
 579 636.498046875 l 5,28,-1
 627 590.534179688 l 5,29,-1
 531 521.18359375 l 5,30,31
 558 481.668945312 558 481.668945312 570 440.139648438 c 132,-1,32
 582 398.610351562 582 398.610351562 582 351.838867188 c 4,33,34
 582 260.715820312 582 260.715820312 530 186.52734375 c 5,35,-1
 630 114.756835938 l 5,36,-1
 582 70.40625 l 5,37,-1
 489 137.336914062 l 5,38,39
 457 103.467773438 457 103.467773438 413.5 70.0029296875 c 132,-1,40
 370 36.537109375 370 36.537109375 314 1.0556640625 c 5,0,-1
EndSplineSet
Validated: 1
Substitution2: "'c2sc' Capitals to Small Capitals in Greek lookup 0 subtable" u10CDF
EndChar

StartChar: u10CA0
Encoding: 68768 68768 42
Width: 503
GlyphClass: 2
Flags: W
LayerCount: 2
Fore
SplineSet
353 442 m 1,0,-1
 57 234 l 1,1,-1
 57 314 l 1,2,-1
 353 526 l 1,3,-1
 353 622 l 1,4,-1
 57 414 l 1,5,-1
 57 495 l 1,6,-1
 367 714 l 1,7,-1
 443 714 l 1,8,-1
 443 0 l 1,9,-1
 353 0 l 1,10,-1
 353 262 l 1,11,-1
 57 54 l 1,12,-1
 57 134 l 1,13,-1
 353 345 l 1,14,-1
 353 442 l 1,0,-1
EndSplineSet
Validated: 1
Substitution2: "'c2sc' Capitals to Small Capitals in Greek lookup 0 subtable" u10CE0
EndChar

StartChar: u10CA1
Encoding: 68769 68769 43
Width: 823
GlyphClass: 2
Flags: W
LayerCount: 2
Fore
SplineSet
417 59 m 1,0,1
 482 119 482 119 532.5 203 c 128,-1,2
 583 287 583 287 583 357.5 c 128,-1,3
 583 428 583 428 531 516.5 c 128,-1,4
 479 605 479 605 417 657 c 1,5,-1
 414 657 l 1,6,7
 352 602 352 602 300 515 c 128,-1,8
 248 428 248 428 248 357.5 c 128,-1,9
 248 287 248 287 300 200 c 128,-1,10
 352 113 352 113 414 59 c 1,11,-1
 417 59 l 1,0,1
668 271 m 1,12,13
 655.276353276 211.017094017 655.276353276 211.017094017 619 147 c 1,14,-1
 713 39 l 1,15,-1
 650 0 l 1,16,-1
 562 90 l 1,17,-1
 443 0 l 1,18,-1
 378 0 l 1,19,-1
 268 90 l 1,20,-1
 179 0 l 1,21,-1
 121 39 l 1,22,-1
 216 147 l 1,23,24
 180 207 180 207 167 271 c 1,25,-1
 121 203 l 1,26,-1
 29 203 l 1,27,-1
 159 366 l 1,28,29
 162.478883321 468.627057981 162.478883321 468.627057981 214 549 c 1,30,-1
 94 479 l 1,31,-1
 26 480 l 1,32,-1
 413 714 l 1,33,-1
 809 478 l 1,34,-1
 741 479 l 1,35,-1
 620 551 l 1,36,37
 674.115835777 467.744868035 674.115835777 467.744868035 676 366 c 1,38,-1
 806 203 l 1,39,-1
 713 203 l 1,40,-1
 668 271 l 1,12,13
EndSplineSet
Validated: 1
Substitution2: "'c2sc' Capitals to Small Capitals in Greek lookup 0 subtable" u10CE1
EndChar

StartChar: u10CA2
Encoding: 68770 68770 44
Width: 593
GlyphClass: 2
Flags: W
LayerCount: 2
Fore
SplineSet
439 409 m 1,0,-1
 147 195 l 1,1,-1
 147 -1 l 1,2,-1
 57 -1 l 1,3,-1
 57 713 l 1,4,-1
 147 713 l 1,5,-1
 147 278 l 1,6,-1
 439 493 l 1,7,-1
 439 708 l 1,8,-1
 529 708 l 1,9,-1
 529 -6 l 1,10,-1
 439 -6 l 1,11,-1
 439 409 l 1,0,-1
EndSplineSet
Validated: 1
Substitution2: "'c2sc' Capitals to Small Capitals in Greek lookup 0 subtable" u10CE2
EndChar

StartChar: u10CA3
Encoding: 68771 68771 45
Width: 413
GlyphClass: 2
Flags: W
LayerCount: 2
Fore
SplineSet
60 212 m 1,0,-1
 60 291 l 1,1,-1
 353 502 l 1,2,-1
 353 423 l 1,3,-1
 60 212 l 1,0,-1
EndSplineSet
Validated: 1
Substitution2: "'c2sc' Capitals to Small Capitals in Greek lookup 0 subtable" u10CE3
EndChar

StartChar: u10CA4
Encoding: 68772 68772 46
Width: 574
GlyphClass: 2
Flags: W
LayerCount: 2
Fore
SplineSet
239 715 m 1,0,-1
 239 716 l 1,1,-1
 332 716 l 1,2,-1
 567 1 l 1,3,-1
 474 1 l 1,4,-1
 284 578 l 1,5,-1
 95 1 l 1,6,-1
 2 1 l 1,7,-1
 237 715 l 1,8,-1
 239 715 l 1,0,-1
EndSplineSet
Validated: 1
Substitution2: "'c2sc' Capitals to Small Capitals in Greek lookup 0 subtable" u10CE4
EndChar

StartChar: u10CA5
Encoding: 68773 68773 47
Width: 208
GlyphClass: 2
Flags: W
LayerCount: 2
Fore
SplineSet
60 0 m 1,0,-1
 60 714 l 1,1,-1
 148 714 l 1,2,-1
 148 0 l 1,3,-1
 60 0 l 1,0,-1
EndSplineSet
Validated: 1
Substitution2: "'c2sc' Capitals to Small Capitals in Greek lookup 0 subtable" u10CE5
EndChar

StartChar: u10CA6
Encoding: 68774 68774 48
Width: 394
GlyphClass: 2
Flags: W
LayerCount: 2
Fore
SplineSet
244 714 m 1,0,-1
 334 714 l 1,1,-1
 334 0 l 1,2,-1
 244 0 l 1,3,-1
 244 388 l 1,4,-1
 50 712 l 1,5,-1
 126 712 l 1,6,-1
 244 511 l 1,7,-1
 244 714 l 1,0,-1
EndSplineSet
Validated: 1
Substitution2: "'c2sc' Capitals to Small Capitals in Greek lookup 0 subtable" u10CE6
EndChar

StartChar: u10CA7
Encoding: 68775 68775 49
Width: 713
GlyphClass: 2
Flags: W
LayerCount: 2
Fore
SplineSet
60 497 m 1,0,-1
 190 714 l 1,1,-1
 314 516 l 1,2,-1
 313 717 l 1,3,-1
 403 717 l 1,4,-1
 404 516 l 1,5,-1
 526 714 l 1,6,-1
 653 495 l 1,7,-1
 586 495 l 1,8,-1
 526 600 l 1,9,-1
 403 427 l 1,10,-1
 407 3 l 1,11,-1
 317 3 l 1,12,-1
 313 427 l 1,13,-1
 191 595 l 1,14,-1
 127 497 l 1,15,-1
 60 497 l 1,0,-1
EndSplineSet
Validated: 1
Substitution2: "'c2sc' Capitals to Small Capitals in Greek lookup 0 subtable" u10CE7
EndChar

StartChar: u10CA8
Encoding: 68776 68776 50
Width: 492
GlyphClass: 2
Flags: W
LayerCount: 2
Fore
SplineSet
178 0 m 1,0,-1
 288 215 l 1,1,-1
 253 282 l 1,2,-1
 109 2 l 1,3,-1
 9 2 l 1,4,-1
 204 379 l 1,5,-1
 37 702 l 1,6,-1
 137 702 l 1,7,-1
 186 607 l 1,8,-1
 234 701 l 1,9,-1
 310 701 l 1,10,-1
 224 533 l 1,11,-1
 254 476 l 1,12,-1
 370 701 l 1,13,-1
 469 701 l 1,14,-1
 303 379 l 1,15,-1
 498 2 l 1,16,-1
 398 2 l 1,17,-1
 326 141 l 1,18,-1
 254 0 l 1,19,-1
 178 0 l 1,0,-1
EndSplineSet
Validated: 1
Substitution2: "'c2sc' Capitals to Small Capitals in Greek lookup 0 subtable" u10CE8
EndChar

StartChar: u10CA9
Encoding: 68777 68777 51
Width: 492
GlyphClass: 2
Flags: W
LayerCount: 2
Fore
SplineSet
330 634 m 1,0,-1
 227 579 l 1,1,-1
 227 660 l 1,2,-1
 303 700 l 1,3,-1
 372 701 l 1,4,-1
 372 700 l 1,5,-1
 463 700 l 1,6,-1
 297 378 l 1,7,-1
 492 1 l 1,8,-1
 303 0 l 1,9,-1
 227 40 l 1,10,-1
 227 121 l 1,11,-1
 374 55 l 1,12,-1
 247 281 l 1,13,-1
 103 1 l 1,14,-1
 3 1 l 1,15,-1
 198 378 l 1,16,-1
 31 701 l 1,17,-1
 131 701 l 1,18,-1
 248 475 l 1,19,-1
 330 634 l 1,0,-1
EndSplineSet
Validated: 1
Substitution2: "'c2sc' Capitals to Small Capitals in Greek lookup 0 subtable" u10CE9
EndChar

StartChar: u10CAA
Encoding: 68778 68778 52
Width: 602
GlyphClass: 2
Flags: W
LayerCount: 2
Fore
SplineSet
148 610 m 1,0,-1
 148 98 l 1,1,-1
 301 282 l 1,2,-1
 450 104 l 1,3,-1
 450 604 l 1,4,-1
 301 426 l 1,5,-1
 148 610 l 1,0,-1
66 0 m 1,6,-1
 60 0 l 1,7,-1
 60 714 l 1,8,-1
 148 714 l 1,9,-1
 148 712 l 1,10,-1
 151 712 l 1,11,-1
 302 532 l 1,12,-1
 450 708 l 1,13,-1
 450 714 l 1,14,-1
 538 714 l 1,15,-1
 538 712 l 1,16,-1
 541 712 l 1,17,-1
 538 708 l 1,18,-1
 538 0 l 1,19,-1
 541 -4 l 1,20,-1
 453 -4 l 1,21,-1
 302 176 l 1,22,-1
 151 -4 l 1,23,-1
 63 -4 l 1,24,-1
 66 0 l 1,6,-1
EndSplineSet
Validated: 1
Substitution2: "'c2sc' Capitals to Small Capitals in Greek lookup 0 subtable" u10CEA
EndChar

StartChar: u10CAB
Encoding: 68779 68779 53
Width: 601
GlyphClass: 2
Flags: W
LayerCount: 2
Fore
SplineSet
543 9 m 1,0,-1
 547 2 l 1,1,-1
 543 2 l 1,2,-1
 543 0 l 1,3,-1
 455 0 l 1,4,-1
 455 9 l 1,5,-1
 302 280 l 1,6,-1
 151 11 l 1,7,-1
 151 0 l 1,8,-1
 60 0 l 1,9,-1
 60 2 l 1,10,-1
 59 2 l 1,11,-1
 60 4 l 1,12,-1
 60 708 l 1,13,-1
 59 710 l 1,14,-1
 60 710 l 1,15,-1
 60 714 l 1,16,-1
 150 714 l 1,17,-1
 150 705 l 1,18,-1
 302 436 l 1,19,-1
 455 708 l 1,20,-1
 455 718 l 1,21,-1
 543 718 l 1,22,-1
 543 9 l 1,0,-1
150 549 m 1,23,-1
 151 166 l 1,24,-1
 258 357 l 1,25,-1
 150 549 l 1,23,-1
455 165 m 1,26,-1
 455 553 l 1,27,-1
 346 358 l 1,28,-1
 455 165 l 1,26,-1
EndSplineSet
Validated: 1
Substitution2: "'c2sc' Capitals to Small Capitals in Greek lookup 0 subtable" u10CEB
EndChar

StartChar: u10CAC
Encoding: 68780 68780 54
Width: 688
GlyphClass: 2
Flags: W
LayerCount: 2
Fore
SplineSet
340 88 m 1,0,1
 406 160 406 160 444 213 c 128,-1,2
 482 266 482 266 482 328 c 256,3,4
 482 390 482 390 448 452 c 128,-1,5
 414 514 414 514 344 588 c 1,6,7
 277 514 277 514 243 452 c 128,-1,8
 209 390 209 390 209 328 c 256,9,10
 209 264 209 264 238 214 c 0,11,12
 272 156 272 156 340 88 c 1,0,1
413 2 m 9,13,14
 269 2 269 2 269 2 c 17,15,16
 216 63 216 63 180 125 c 1,17,18
 180 125 180 125 86 2 c 1,19,-1
 34 71 l 1,20,-1
 127 197 l 1,21,22
 57 334 57 334 144 500 c 1,23,24
 144 500 144 500 40 614 c 1,25,-1
 84 674 l 1,26,-1
 188 568 l 1,27,28
 203 594 203 594 285 687 c 1,29,30
 326 684 326 684 397 687 c 1,31,32
 479 594 479 594 494 568 c 1,33,34
 494 568 494 568 598 674 c 1,35,-1
 642 614 l 1,36,-1
 538 500 l 1,37,38
 625 334 625 334 555 197 c 1,39,40
 555 197 555 197 648 71 c 1,41,-1
 596 2 l 1,42,-1
 502 125 l 1,43,44
 466 63 466 63 413 2 c 9,13,14
EndSplineSet
Validated: 33
Substitution2: "'c2sc' Capitals to Small Capitals in Greek lookup 0 subtable" u10CEC
EndChar

StartChar: u10CAD
Encoding: 68781 68781 55
Width: 462
GlyphClass: 2
Flags: W
LayerCount: 2
Fore
SplineSet
59 710 m 1,0,-1
 147 710 l 1,1,-1
 147 342 l 1,2,-1
 407 489 l 1,3,-1
 407 2 l 1,4,-1
 319 2 l 1,5,-1
 319 369 l 1,6,-1
 59 221 l 1,7,-1
 59 710 l 1,0,-1
EndSplineSet
Validated: 1
Substitution2: "'c2sc' Capitals to Small Capitals in Greek lookup 0 subtable" u10CED
EndChar

StartChar: u10CAE
Encoding: 68782 68782 56
Width: 602
GlyphClass: 2
Flags: W
LayerCount: 2
Fore
SplineSet
450 604 m 1,0,-1
 301 426 l 1,1,-1
 148 610 l 1,2,-1
 148 -4 l 1,3,-1
 60 -4 l 1,4,-1
 60 714 l 1,5,-1
 148 714 l 1,6,-1
 148 712 l 1,7,-1
 151 712 l 1,8,-1
 302 532 l 1,9,-1
 450 708 l 1,10,-1
 450 714 l 1,11,-1
 538 714 l 1,12,-1
 538 712 l 1,13,-1
 538 708 l 1,14,-1
 536 -3 l 1,15,-1
 450 -4 l 1,16,-1
 450 604 l 1,0,-1
EndSplineSet
Validated: 1
Substitution2: "'c2sc' Capitals to Small Capitals in Greek lookup 0 subtable" u10CEE
EndChar

StartChar: u10CAF
Encoding: 68783 68783 57
Width: 593
GlyphClass: 2
Flags: W
LayerCount: 2
Fore
SplineSet
147 128 m 1,0,-1
 439 342 l 1,1,-1
 439 426 l 1,2,-1
 147 214 l 1,3,-1
 147 128 l 1,0,-1
439 510 m 1,4,-1
 439 599 l 1,5,-1
 147 385 l 1,6,-1
 147 296 l 1,7,-1
 439 510 l 1,4,-1
439 683 m 1,8,-1
 439 708 l 1,9,-1
 529 708 l 1,10,-1
 529 -6 l 1,11,-1
 439 -6 l 1,12,-1
 439 259 l 1,13,-1
 147 45 l 1,14,-1
 147 -1 l 1,15,-1
 57 -1 l 1,16,-1
 57 713 l 1,17,-1
 147 713 l 1,18,-1
 147 468 l 1,19,-1
 439 683 l 1,8,-1
EndSplineSet
Validated: 1
Substitution2: "'c2sc' Capitals to Small Capitals in Greek lookup 0 subtable" u10CEF
EndChar

StartChar: u10CB0
Encoding: 68784 68784 58
Width: 580
GlyphClass: 2
Flags: W
LayerCount: 2
Fore
SplineSet
335 447 m 1,0,-1
 335 0 l 1,1,-1
 245 0 l 1,2,-1
 245 449 l 1,3,-1
 50 714 l 1,4,-1
 131 714 l 1,5,-1
 245 557 l 1,6,-1
 245 714 l 1,7,-1
 335 714 l 1,8,-1
 335 552 l 1,9,-1
 450 714 l 1,10,-1
 528 714 l 1,11,-1
 528 712 l 1,12,-1
 335 447 l 1,0,-1
EndSplineSet
Validated: 1
Substitution2: "'c2sc' Capitals to Small Capitals in Greek lookup 0 subtable" u10CF0
EndChar

StartChar: u10CB1
Encoding: 68785 68785 59
Width: 712
GlyphClass: 2
Flags: W
LayerCount: 2
Fore
SplineSet
525 708 m 1,1,-1
 652 538 l 1,2,-1
 585 538 l 1,3,-1
 525 623 l 1,4,-1
 403 487 l 1,5,-1
 399 340 l 1,6,-1
 525 490 l 1,7,-1
 652 319 l 1,8,-1
 585 319 l 1,9,-1
 525 400 l 1,10,-1
 398 236 l 1,11,-1
 399 89 l 1,12,-1
 525 279 l 1,13,-1
 652 93 l 1,14,-1
 585 93 l 1,15,-1
 525 174 l 1,16,-1
 402 0 l 1,17,-1
 313 0 l 1,18,-1
 191 169 l 1,19,-1
 127 95 l 1,20,-1
 60 95 l 1,21,-1
 190 279 l 1,22,-1
 314 89 l 1,23,-1
 313 236 l 1,24,-1
 191 395 l 1,25,-1
 127 321 l 1,26,-1
 60 321 l 1,27,-1
 190 490 l 1,28,-1
 314 340 l 1,29,-1
 313 487 l 1,30,-1
 191 618 l 1,31,-1
 127 540 l 1,32,-1
 60 540 l 1,33,-1
 190 708 l 1,34,-1
 314 558 l 1,35,-1
 313 714 l 1,36,-1
 403 714 l 1,37,38
 402 561 402 561 404 561 c 0,39,0
 464 634 464 634 525 708 c 1,1,-1
EndSplineSet
Validated: 33
Substitution2: "'c2sc' Capitals to Small Capitals in Greek lookup 0 subtable" u10CF1
EndChar

StartChar: u10CB2
Encoding: 68786 68786 60
Width: 643
GlyphClass: 2
Flags: W
LayerCount: 2
Fore
SplineSet
366 103 m 1,0,1
 411 161 411 161 450.5 239.5 c 128,-1,2
 490 318 490 318 490 360.5 c 128,-1,3
 490 403 490 403 452 482.5 c 128,-1,4
 414 562 414 562 365 617 c 1,5,-1
 366 103 l 1,0,1
276 617 m 1,6,7
 228 560 228 560 190.5 481 c 128,-1,8
 153 402 153 402 153 361.5 c 128,-1,9
 153 321 153 321 192.5 241 c 128,-1,10
 232 161 232 161 275 105 c 1,11,-1
 276 617 l 1,6,7
283 2 m 1,12,13
 167 100 167 100 113.5 184.5 c 128,-1,14
 60 269 60 269 60 361.5 c 128,-1,15
 60 454 60 454 111.5 538 c 128,-1,16
 163 622 163 622 274 716 c 1,17,-1
 364 716 l 1,18,19
 479 621 479 621 531 535.5 c 128,-1,20
 583 450 583 450 583 356.5 c 128,-1,21
 583 263 583 263 532 180 c 256,22,23
 481 97 481 97 365 2 c 1,24,-1
 283 2 l 1,12,13
EndSplineSet
Validated: 1
Substitution2: "'c2sc' Capitals to Small Capitals in Greek lookup 0 subtable" u10CF2
EndChar

StartChar: u10CFA
Encoding: 68858 68858 61
Width: 208
GlyphClass: 2
Flags: W
LayerCount: 2
Fore
SplineSet
60 0 m 1,0,-1
 60 714 l 1,1,-1
 148 714 l 1,2,-1
 148 0 l 1,3,-1
 60 0 l 1,0,-1
EndSplineSet
Validated: 1
EndChar

StartChar: u10CFB
Encoding: 68859 68859 62
Width: 510
GlyphClass: 2
Flags: W
LayerCount: 2
Fore
SplineSet
301 0 m 1,0,-1
 209 0 l 1,1,-1
 5 714 l 1,2,-1
 90 714 l 1,3,-1
 219 256 l 2,4,5
 233 206 233 206 241 174 c 0,6,7
 249 135 249 135 255 100 c 1,8,9
 261 135 261 135 270 174 c 0,10,11
 277 207 277 207 291 258 c 2,12,-1
 419 714 l 1,13,-1
 505 714 l 1,14,-1
 301 0 l 1,0,-1
EndSplineSet
Validated: 1
EndChar

StartChar: u10CFC
Encoding: 68860 68860 63
Width: 492
GlyphClass: 2
Flags: W
LayerCount: 2
Fore
SplineSet
395 0 m 1,0,-1
 244 310 l 1,1,-1
 91 0 l 1,2,-1
 5 0 l 1,3,-1
 194 372 l 1,4,-1
 17 714 l 1,5,-1
 107 714 l 1,6,-1
 247 434 l 1,7,-1
 387 714 l 1,8,-1
 473 714 l 1,9,-1
 297 374 l 1,10,-1
 487 0 l 1,11,-1
 395 0 l 1,0,-1
EndSplineSet
Validated: 1
EndChar

StartChar: u10CFD
Encoding: 68861 68861 64
Width: 529
GlyphClass: 2
Flags: W
LayerCount: 2
Fore
SplineSet
438 714 m 1,0,-1
 524 714 l 1,1,-1
 320 0 l 1,2,-1
 210 0 l 1,3,-1
 5 714 l 1,4,-1
 90 714 l 1,5,-1
 216 263 l 1,6,-1
 210 715 l 1,7,-1
 318 715 l 1,8,-1
 311 261 l 1,9,-1
 438 714 l 1,0,-1
EndSplineSet
Validated: 1
EndChar

StartChar: u10CFE
Encoding: 68862 68862 65
Width: 510
GlyphClass: 2
Flags: W
LayerCount: 2
Fore
SplineSet
209 720 m 1,1,-1
 297 720 l 1,2,-1
 297 483 l 1,3,-1
 405 714 l 1,4,-1
 491 714 l 1,5,-1
 314 374 l 1,6,-1
 505 0 l 1,7,-1
 413 0 l 1,8,-1
 297 238 l 1,9,-1
 297 0 l 1,10,-1
 209 0 l 1,11,-1
 210 240 l 1,12,-1
 91 0 l 1,13,-1
 5 0 l 1,14,-1
 194 372 l 1,15,-1
 17 714 l 1,16,-1
 107 714 l 1,17,-1
 215 482 l 1,18,0
 209 666 209 666 209 720 c 1,1,-1
EndSplineSet
Validated: 1
EndChar

StartChar: u10CFF
Encoding: 68863 68863 66
Width: 510
GlyphClass: 2
Flags: W
LayerCount: 2
Fore
SplineSet
26 328 m 1,0,-1
 26 418 l 1,1,-1
 160 416 l 1,2,-1
 17 714 l 1,3,-1
 107 714 l 1,4,-1
 215 442 l 1,5,6
 209 596 209 596 209 720 c 1,7,-1
 297 720 l 1,8,-1
 297 443 l 1,9,-1
 405 714 l 1,10,-1
 491 714 l 1,11,-1
 353 418 l 1,12,-1
 488 420 l 1,13,-1
 488 330 l 1,14,-1
 348 330 l 1,15,-1
 505 0 l 1,16,-1
 413 0 l 1,17,-1
 297 268 l 1,18,-1
 297 0 l 1,19,-1
 209 0 l 1,20,-1
 210 270 l 1,21,-1
 91 0 l 1,22,-1
 5 0 l 1,23,-1
 158 330 l 1,24,-1
 26 328 l 1,0,-1
EndSplineSet
Validated: 1
EndChar

StartChar: u10CC0
Encoding: 68800 68800 67
Width: 342
LayerCount: 2
Fore
SplineSet
45 377 m 1,0,-1
 212 536 l 1,1,-1
 295 536 l 1,2,-1
 297 -1 l 1,3,-1
 209 -1 l 1,4,-1
 209 273 l 1,5,-1
 45 271 l 1,6,-1
 45 377 l 1,0,-1
209 470 m 1,7,-1
 91 344 l 1,8,-1
 209 348 l 1,9,-1
 209 470 l 1,7,-1
EndSplineSet
Validated: 1
EndChar

StartChar: u10CC1
Encoding: 68801 68801 68
Width: 351
LayerCount: 2
Fore
SplineSet
60 411 m 1,0,-1
 212 540 l 1,1,-1
 295 540 l 1,2,-1
 297 -1 l 1,3,-1
 209 -1 l 1,4,-1
 209 220 l 1,5,-1
 60 346 l 1,6,-1
 60 411 l 1,0,-1
209 474 m 1,7,-1
 98 378 l 1,8,-1
 209 284 l 1,9,-1
 209 474 l 1,7,-1
EndSplineSet
Validated: 1
EndChar

StartChar: u10CC2
Encoding: 68802 68802 69
Width: 369
LayerCount: 2
Fore
SplineSet
188 216 m 1,0,-1
 80 1 l 1,1,-1
 5 1 l 1,2,-1
 152 289 l 1,3,-1
 26 531 l 1,4,-1
 101 531 l 1,5,-1
 189 362 l 1,6,-1
 276 530 l 1,7,-1
 350 530 l 1,8,-1
 226 289 l 1,9,-1
 372 1 l 1,10,-1
 297 1 l 1,11,-1
 188 216 l 1,0,-1
EndSplineSet
Validated: 1
EndChar

StartChar: u10CC3
Encoding: 68803 68803 70
Width: 810
LayerCount: 2
Fore
SplineSet
371 3 m 1,0,1
 345 23 345 23 321.5 43.5 c 128,-1,2
 298 64 298 64 279 84 c 1,3,-1
 198 4 l 1,4,-1
 41 71 l 1,5,-1
 64 115 l 1,6,-1
 173 75 l 1,7,-1
 235 123 l 1,8,9
 198 154 198 154 178 189.5 c 128,-1,10
 158 225 158 225 158 266 c 128,-1,11
 158 307 158 307 178 342.5 c 128,-1,12
 198 378 198 378 235 410 c 1,13,-1
 173 458 l 1,14,-1
 64 418 l 1,15,-1
 41 462 l 1,16,-1
 198 531 l 1,17,-1
 279 448 l 1,18,19
 299 470 299 470 322 491 c 0,20,21
 344 512 344 512 370 532 c 1,22,-1
 441 532 l 1,23,24
 467 512 467 512 489.5 491.5 c 128,-1,25
 512 471 512 471 532 449 c 1,26,-1
 609 531 l 1,27,-1
 769 462 l 1,28,-1
 745 418 l 1,29,-1
 635 458 l 1,30,-1
 575 411 l 1,31,32
 613 379 613 379 633 343 c 128,-1,33
 653 307 653 307 653 266 c 256,34,35
 653 225 653 225 633 189.5 c 128,-1,36
 613 154 613 154 575 122 c 1,37,-1
 635 75 l 1,38,-1
 745 115 l 1,39,-1
 769 71 l 1,40,-1
 609 4 l 1,41,-1
 532 83 l 1,42,43
 512 63 512 63 489.5 43 c 128,-1,44
 467 23 467 23 441 3 c 1,45,-1
 371 3 l 1,0,1
404 59 m 1,46,-1
 407 59 l 1,47,48
 459 94 459 94 492.5 125 c 128,-1,49
 526 156 526 156 543 189.5 c 128,-1,50
 560 223 560 223 560 264 c 128,-1,51
 560 305 560 305 543 338.5 c 128,-1,52
 526 372 526 372 492.5 403.5 c 128,-1,53
 459 435 459 435 407 470 c 1,54,-1
 404 470 l 1,55,56
 353 435 353 435 319 403.5 c 128,-1,57
 285 372 285 372 268 338.5 c 128,-1,58
 251 305 251 305 251 264 c 128,-1,59
 251 223 251 223 268 189.5 c 128,-1,60
 285 156 285 156 319 125 c 128,-1,61
 353 94 353 94 404 59 c 1,46,-1
EndSplineSet
Validated: 1
EndChar

StartChar: u10CC4
Encoding: 68804 68804 71
Width: 467
LayerCount: 2
Fore
SplineSet
119 396 m 1,0,-1
 45 388 l 1,1,-1
 188 541 l 1,2,-1
 280 541 l 1,3,4
 280 540 280 540 422 388 c 1,5,-1
 348 396 l 1,6,-1
 281 468 l 1,7,-1
 278 0 l 1,8,-1
 185 0 l 1,9,-1
 188 467 l 1,10,-1
 119 396 l 1,0,-1
EndSplineSet
Validated: 1
EndChar

StartChar: u10CC5
Encoding: 68805 68805 72
Width: 466
LayerCount: 2
Fore
SplineSet
201 0 m 1,0,-1
 45 159 l 1,1,2
 45 160 45 160 120 152 c 1,3,-1
 188 80 l 1,4,-1
 188 467 l 1,5,-1
 120 396 l 1,6,-1
 45 388 l 1,7,-1
 201 541 l 1,8,-1
 265 541 l 1,9,10
 265 540 265 540 421 388 c 1,11,-1
 347 396 l 1,12,-1
 278 468 l 1,13,-1
 278 80 l 1,14,-1
 347 152 l 1,15,-1
 421 159 l 1,16,-1
 265 0 l 1,17,-1
 201 0 l 1,0,-1
EndSplineSet
Validated: 33
EndChar

StartChar: u10CC6
Encoding: 68806 68806 73
Width: 489
LayerCount: 2
Fore
SplineSet
352 284 m 1,0,-1
 352 432 l 1,1,-1
 133 271 l 1,2,3
 133 272 133 272 133 124 c 1,4,-1
 352 284 l 1,0,-1
352 495 m 1,5,-1
 352 536 l 1,6,-1
 442 536 l 1,7,-1
 442 -5 l 1,8,-1
 352 -5 l 1,9,-1
 352 222 l 1,10,-1
 133 61 l 1,11,-1
 133 -1 l 1,12,-1
 43 -1 l 1,13,-1
 43 540 l 1,14,-1
 133 540 l 1,15,-1
 133 334 l 1,16,-1
 352 495 l 1,5,-1
EndSplineSet
Validated: 33
EndChar

StartChar: u10CC7
Encoding: 68807 68807 74
Width: 347
LayerCount: 2
Fore
SplineSet
123 295 m 1,0,-1
 123 541 l 1,1,-1
 214 541 l 1,2,-1
 213 339 l 1,3,-1
 304 398 l 1,4,-1
 304 338 l 1,5,-1
 213 278 l 1,6,-1
 212 0 l 1,7,-1
 123 0 l 1,8,-1
 123 234 l 1,9,-1
 42 181 l 1,10,11
 42 182 42 182 42 242 c 1,12,-1
 123 295 l 1,0,-1
EndSplineSet
Validated: 1
EndChar

StartChar: u10CC8
Encoding: 68808 68808 75
Width: 353
LayerCount: 2
Fore
SplineSet
237 274 m 1,0,-1
 373 0 l 1,1,-1
 297 0 l 1,2,-1
 191 223 l 1,3,-1
 83 0 l 1,4,-1
 11 0 l 1,5,-1
 120 220 l 1,6,-1
 122 224 l 1,7,-1
 26 182 l 1,8,-1
 26 237 l 1,9,-1
 149 291 l 1,10,-1
 20 541 l 1,11,-1
 95 541 l 1,12,-1
 193 346 l 1,13,-1
 291 541 l 1,14,-1
 363 541 l 1,15,-1
 267 357 l 1,16,-1
 258 338 l 1,17,-1
 345 376 l 1,18,-1
 345 322 l 1,19,-1
 237 274 l 1,0,-1
EndSplineSet
Validated: 1
EndChar

StartChar: u10CC9
Encoding: 68809 68809 76
Width: 446
LayerCount: 2
Fore
SplineSet
103 -3 m 5,0,-1
 65 40 l 5,1,2
 97 56 97 56 123.5 71 c 132,-1,3
 150 86 150 86 171 100 c 5,4,-1
 74 167 l 5,5,-1
 115 202 l 5,6,-1
 215 133 l 5,7,8
 250 163 250 163 265.5 195 c 132,-1,9
 281 227 281 227 281 265 c 4,10,11
 281 304 281 304 265.5 335 c 132,-1,12
 250 366 250 366 212 398 c 5,13,-1
 115 331 l 5,14,-1
 74 366 l 5,15,-1
 168 431 l 5,16,17
 146 445 146 445 119.5 460.5 c 132,-1,18
 93 476 93 476 61 493 c 5,19,-1
 107 533 l 5,20,21
 141 516 141 516 169 499.5 c 132,-1,22
 197 483 197 483 220 467 c 5,23,-1
 325 531 l 5,24,-1
 374 494 l 5,25,-1
 264 434 l 5,26,27
 324 394 324 394 349.5 353.5 c 132,-1,28
 375 313 375 313 375 265 c 4,29,30
 375 217 375 217 350 177 c 132,-1,31
 325 137 325 137 266 98 c 5,32,-1
 374 40 l 5,33,-1
 325 2 l 5,34,-1
 221 65 l 5,35,36
 197 49 197 49 167.5 32 c 132,-1,37
 138 15 138 15 103 -3 c 5,0,-1
EndSplineSet
Validated: 1
EndChar

StartChar: u10CCA
Encoding: 68810 68810 77
Width: 487
LayerCount: 2
Fore
SplineSet
125 -4 m 5,0,-1
 74 39 l 5,1,2
 109 53 109 53 139 66.5 c 132,-1,3
 169 80 169 80 194 92 c 5,4,5
 131 132 131 132 104 174 c 132,-1,6
 77 216 77 216 77 265 c 260,7,8
 77 314 77 314 103.5 355.5 c 4,9,10
 130 396 130 396 193 436 c 5,11,12
 167 450 167 450 136.5 464 c 132,-1,13
 106 478 106 478 70 494 c 5,14,-1
 129 534 l 5,15,16
 197 502 197 502 244 474 c 5,17,18
 291 502 291 502 359 534 c 5,19,-1
 418 494 l 5,20,21
 382 479 382 479 351 465 c 132,-1,22
 320 451 320 451 295 437 c 5,23,24
 357 397 357 397 384 355.5 c 132,-1,25
 411 314 411 314 411 265 c 132,-1,26
 411 216 411 216 384 174.5 c 132,-1,27
 357 133 357 133 293 92 c 5,28,29
 318 79 318 79 348.5 66 c 132,-1,30
 379 53 379 53 414 39 c 5,31,-1
 363 -4 l 5,32,33
 329 12 329 12 299 27.5 c 132,-1,34
 269 43 269 43 244 57 c 5,35,36
 219 43 219 43 189 27.5 c 132,-1,37
 159 12 159 12 125 -4 c 5,0,-1
244 128 m 5,38,39
 283 160 283 160 300 192.5 c 132,-1,40
 317 225 317 225 317 265 c 260,41,42
 317 305 317 305 300.5 336.5 c 132,-1,43
 284 368 284 368 244 400 c 5,44,45
 204 368 204 368 187.5 336 c 132,-1,46
 171 304 171 304 171 265 c 260,47,48
 171 225 171 225 188 192.5 c 132,-1,49
 205 160 205 160 244 128 c 5,38,39
EndSplineSet
Validated: 1
EndChar

StartChar: u10CCB
Encoding: 68811 68811 78
Width: 407
LayerCount: 2
Fore
SplineSet
210 -15 m 1,0,-1
 66 86 l 1,1,2
 130 117 130 117 171 144.5 c 128,-1,3
 212 172 212 172 232 201 c 128,-1,4
 252 230 252 230 252 265 c 0,5,6
 252 301 252 301 232.5 329.5 c 128,-1,7
 213 358 213 358 171.5 385.5 c 128,-1,8
 130 413 130 413 66 444 c 1,9,-1
 210 545 l 1,10,-1
 254 504 l 1,11,-1
 173 450 l 1,12,13
 265 406 265 406 305.5 362.5 c 128,-1,14
 346 319 346 319 346 265 c 0,15,16
 346 212 346 212 305.5 168.5 c 128,-1,17
 265 125 265 125 173 80 c 1,18,-1
 254 26 l 1,19,-1
 210 -15 l 1,0,-1
EndSplineSet
Validated: 1
EndChar

StartChar: u10CCC
Encoding: 68812 68812 79
Width: 499
LayerCount: 2
Fore
SplineSet
218 0 m 1,0,1
 133 57 133 57 89 120.5 c 128,-1,2
 45 184 45 184 45 268 c 256,3,4
 45 352 45 352 89 415.5 c 128,-1,5
 133 479 133 479 218 536 c 1,6,-1
 281 536 l 1,7,8
 366 479 366 479 410 415.5 c 128,-1,9
 454 352 454 352 454 268 c 256,10,11
 454 184 454 184 409.5 120.5 c 128,-1,12
 365 57 365 57 281 0 c 1,13,-1
 218 0 l 1,0,1
248 472 m 1,14,15
 208 435 208 435 179 398 c 1,16,-1
 249 310 l 1,17,-1
 320 397 l 1,18,19
 297 428 297 428 251 472 c 1,20,-1
 248 472 l 1,14,15
215 267 m 1,21,-1
 150 347 l 1,22,23
 136 311 136 311 136 267.5 c 128,-1,24
 136 224 136 224 150 188 c 1,25,-1
 215 267 l 1,21,-1
349 189 m 1,26,27
 363 225 363 225 363 267.5 c 128,-1,28
 363 310 363 310 349 347 c 1,29,-1
 284 267 l 1,30,-1
 349 189 l 1,26,27
251 64 m 1,31,32
 294 102 294 102 319 136 c 1,33,-1
 249 222 l 1,34,-1
 180 136 l 1,35,36
 205 103 205 103 248 64 c 1,37,-1
 251 64 l 1,31,32
EndSplineSet
Validated: 1
EndChar

StartChar: u10CCD
Encoding: 68813 68813 80
Width: 474
LayerCount: 2
Fore
SplineSet
177 -1 m 1,0,-1
 284 307 l 1,1,2
 284 306 284 306 253 440 c 1,3,-1
 95 1 l 1,4,5
 96 1 96 1 2 1 c 1,6,-1
 196 543 l 1,7,-1
 278 544 l 1,8,-1
 470 1 l 1,9,-1
 400 1 l 1,10,-1
 328 226 l 1,11,-1
 249 -1 l 1,12,-1
 177 -1 l 1,0,-1
EndSplineSet
Validated: 37
EndChar

StartChar: u10CCE
Encoding: 68814 68814 81
Width: 372
LayerCount: 2
Fore
SplineSet
229 253 m 1,0,-1
 327 330 l 1,1,-1
 327 265 l 1,2,3
 327 266 327 266 228 188 c 1,4,-1
 226 0 l 1,5,-1
 136 0 l 1,6,-1
 136 138 l 1,7,-1
 45 74 l 1,8,-1
 45 140 l 1,9,-1
 136 206 l 1,10,-1
 136 303 l 1,11,-1
 45 239 l 1,12,-1
 45 297 l 1,13,-1
 136 363 l 1,14,-1
 136 541 l 1,15,-1
 226 541 l 1,16,-1
 227 418 l 1,17,-1
 327 488 l 1,18,-1
 327 422 l 1,19,-1
 228 352 l 1,20,-1
 229 253 l 1,0,-1
EndSplineSet
Validated: 33
EndChar

StartChar: u10CCF
Encoding: 68815 68815 82
Width: 413
LayerCount: 2
Fore
SplineSet
206 190 m 1,0,-1
 276 273 l 1,1,-1
 206 358 l 1,2,-1
 137 273 l 1,3,-1
 206 190 l 1,0,-1
161 402 m 1,4,-1
 50 541 l 1,5,-1
 131 541 l 1,6,7
 130 540 130 540 206 454 c 1,8,-1
 282 541 l 1,9,-1
 362 541 l 1,10,11
 362 542 362 542 251 410 c 1,12,-1
 358 274 l 1,13,-1
 251 142 l 1,14,-1
 368 0 l 1,15,-1
 279 0 l 1,16,17
 278 0 278 0 206 98 c 1,18,-1
 125 0 l 1,19,-1
 45 0 l 1,20,-1
 161 142 l 1,21,-1
 55 273 l 1,22,-1
 161 402 l 1,4,-1
EndSplineSet
Validated: 37
EndChar

StartChar: u10CD0
Encoding: 68816 68816 83
Width: 371
LayerCount: 2
Fore
SplineSet
226 409 m 1,0,-1
 226 0 l 1,1,-1
 136 0 l 1,2,-1
 136 364 l 1,3,-1
 45 303 l 1,4,5
 45 304 45 304 45 368 c 1,6,-1
 136 428 l 1,7,-1
 136 541 l 1,8,-1
 226 541 l 1,9,-1
 226 473 l 1,10,11
 226 474 226 474 328 542 c 1,12,-1
 328 477 l 1,13,-1
 226 409 l 1,0,-1
EndSplineSet
Validated: 1
EndChar

StartChar: u10CD1
Encoding: 68817 68817 84
Width: 371
LayerCount: 2
Fore
SplineSet
311 531 m 1,0,-1
 326 541 l 1,1,-1
 326 540 l 1,2,-1
 328 542 l 1,3,-1
 328 477 l 1,4,5
 328 478 328 478 228 410 c 1,6,-1
 226 0 l 1,7,-1
 136 0 l 1,8,-1
 136 364 l 1,9,-1
 45 303 l 1,10,11
 45 304 45 304 45 368 c 1,12,-1
 311 531 l 1,0,-1
EndSplineSet
Validated: 33
EndChar

StartChar: u10CD2
Encoding: 68818 68818 85
Width: 316
LayerCount: 2
Fore
SplineSet
45 409 m 1,0,-1
 192 540 l 1,1,-1
 271 541 l 1,2,-1
 269 0 l 1,3,-1
 179 0 l 1,4,-1
 179 458 l 1,5,-1
 45 340 l 1,6,-1
 45 409 l 1,0,-1
EndSplineSet
Validated: 1
EndChar

StartChar: u10CD3
Encoding: 68819 68819 86
Width: 410
LayerCount: 2
Fore
SplineSet
285 269 m 1,0,-1
 197 456 l 1,1,-1
 117 271 l 1,2,-1
 204 84 l 1,3,-1
 285 269 l 1,0,-1
167 5 m 1,4,-1
 43 274 l 1,5,-1
 165 541 l 1,6,-1
 236 541 l 1,7,-1
 356 269 l 1,8,-1
 238 5 l 1,9,-1
 167 5 l 1,4,-1
EndSplineSet
Validated: 1
EndChar

StartChar: u10CD4
Encoding: 68820 68820 87
Width: 466
LayerCount: 2
Fore
SplineSet
284 0 m 1,0,-1
 197 1 l 1,1,2
 197 0 197 0 191 436 c 1,3,-1
 108 315 l 1,4,-1
 44 315 l 1,5,6
 44 316 44 316 195 542 c 1,7,-1
 282 541 l 1,8,9
 282 542 282 542 282 110 c 1,10,-1
 380 247 l 1,11,12
 380 248 380 248 444 248 c 1,13,-1
 284 0 l 1,0,-1
EndSplineSet
Validated: 33
EndChar

StartChar: u10CD5
Encoding: 68821 68821 88
Width: 441
LayerCount: 2
Fore
SplineSet
5 1 m 1,0,-1
 7 5 l 1,1,2
 7 4 7 4 -25 74 c 1,3,-1
 -26 149 l 1,4,-1
 39 72 l 1,5,6
 40 72 40 72 152 289 c 1,7,8
 152 290 152 290 59 468 c 1,9,-1
 -6 391 l 1,10,-1
 -4 465 l 1,11,-1
 27 530 l 1,12,-1
 26 531 l 1,13,-1
 28 531 l 1,14,-1
 28 533 l 1,15,-1
 29 531 l 1,16,-1
 101 531 l 1,17,-1
 189 362 l 1,18,-1
 276 530 l 1,19,-1
 348 530 l 1,20,-1
 350 533 l 1,21,-1
 382 465 l 1,22,-1
 384 391 l 1,23,-1
 318 468 l 1,24,-1
 226 289 l 1,25,-1
 339 71 l 1,26,-1
 406 149 l 1,27,28
 406 148 406 148 404 74 c 1,29,-1
 371 2 l 1,30,-1
 372 1 l 1,31,-1
 297 1 l 1,32,-1
 188 216 l 1,33,-1
 80 1 l 1,34,-1
 5 1 l 1,0,-1
EndSplineSet
Validated: 37
EndChar

StartChar: u10CD6
Encoding: 68822 68822 89
Width: 459
LayerCount: 2
Fore
SplineSet
296 276 m 1,0,-1
 204 -1 l 1,1,-1
 155 -1 l 1,2,-1
 270 344 l 1,3,-1
 239 440 l 1,4,-1
 87 1 l 1,5,-1
 -7 1 l 1,6,-1
 181 543 l 1,7,-1
 185 543 l 1,8,-1
 185 544 l 1,9,-1
 260 544 l 1,10,-1
 454 1 l 1,11,-1
 384 1 l 1,12,-1
 350 120 l 1,13,-1
 309 1 l 1,14,-1
 243 1 l 1,15,16
 243 0 243 0 308 188 c 1,17,-1
 296 276 l 1,0,-1
EndSplineSet
Validated: 37
EndChar

StartChar: u10CD7
Encoding: 68823 68823 90
Width: 438
LayerCount: 2
Fore
SplineSet
184 0 m 1,0,1
 120 57 120 57 88 111 c 0,2,3
 44 184 44 184 45 268 c 256,4,5
 44 352 44 352 88 424 c 0,6,7
 121 479 121 479 184 536 c 1,8,-1
 239 536 l 1,9,10
 308 479 308 479 344 426 c 0,11,12
 393 352 393 352 393 268 c 128,-1,13
 393 184 393 184 345 112 c 0,14,15
 309 57 309 57 239 0 c 1,16,-1
 184 0 l 1,0,1
276 396 m 1,17,18
 254 431 254 431 213 472 c 1,19,20
 214 472 214 472 212 472 c 1,21,22
 154 413 154 413 139 384.5 c 128,-1,23
 124 356 124 356 117 328 c 128,-1,24
 110 300 110 300 107 267.5 c 128,-1,25
 104 235 104 235 124 189 c 1,26,-1
 276 396 l 1,17,18
151 136 m 1,27,28
 172 105 172 105 212 64 c 1,29,-1
 213 64 l 1,30,31
 282 134 282 134 302 169 c 0,32,33
 360 243 360 243 308 352 c 1,34,-1
 151 136 l 1,27,28
EndSplineSet
Validated: 33
EndChar

StartChar: u10CD8
Encoding: 68824 68824 91
Width: 363
LayerCount: 2
Fore
SplineSet
234 538 m 1,0,-1
 236 539 l 1,1,-1
 280 539 l 1,2,-1
 280 538 l 1,3,-1
 320 538 l 1,4,-1
 320 0 l 1,5,-1
 232 0 l 1,6,-1
 232 4 l 1,7,-1
 46 105 l 1,8,9
 46 106 46 106 44 104 c 1,10,-1
 44 164 l 1,11,-1
 206 271 l 1,12,-1
 46 354 l 1,13,-1
 45 352 l 1,14,-1
 45 415 l 1,15,16
 44 415 44 415 232 538 c 1,17,-1
 232 538 l 1,18,-1
 234 538 l 1,0,-1
232 477 m 1,19,-1
 95 387 l 1,20,21
 94 387 94 387 232 316 c 1,22,-1
 232 477 l 1,19,-1
232 227 m 1,23,-1
 95 137 l 1,24,25
 94 137 94 137 232 66 c 1,26,-1
 232 227 l 1,23,-1
EndSplineSet
Validated: 37
EndChar

StartChar: u10CD9
Encoding: 68825 68825 92
Width: 331
LayerCount: 2
Fore
SplineSet
52 77 m 2,0,1
 191 77 191 77 191 266.5 c 128,-1,2
 191 456 191 456 61 456 c 2,3,-1
 45 456 l 1,4,-1
 45 538 l 1,5,6
 110 536 110 536 164 510 c 0,7,8
 235 476 235 476 263 411 c 0,9,10
 286 358 286 358 286 278 c 0,11,12
 286 136 286 136 213 62 c 0,13,14
 150 -23 150 -23 45 1 c 1,15,-1
 45 77 l 1,16,-1
 52 77 l 2,0,1
EndSplineSet
Validated: 33
EndChar

StartChar: u10CDA
Encoding: 68826 68826 93
Width: 418
LayerCount: 2
Fore
SplineSet
370 271 m 0,0,1
 370 137 370 137 303.5 68.5 c 128,-1,2
 237 0 237 0 119 0 c 2,3,-1
 49 0 l 1,4,-1
 49 536 l 1,5,-1
 133 536 l 2,6,7
 206 536 206 536 259 506 c 0,8,9
 370 444 370 444 370 271 c 0,0,1
136 77 m 2,10,11
 275 77 275 77 275 268 c 128,-1,12
 275 459 275 459 145 459 c 2,13,-1
 129 459 l 1,14,-1
 129 77 l 1,15,-1
 136 77 l 2,10,11
EndSplineSet
Validated: 1
EndChar

StartChar: u10CDB
Encoding: 68827 68827 94
Width: 499
LayerCount: 2
Fore
SplineSet
218 1 m 1,0,-1
 101 95 l 1,1,-1
 148 132 l 1,2,-1
 224 67 l 1,3,4
 269 99 269 99 297 128 c 0,5,6
 324 158 324 158 336.5 191.5 c 128,-1,7
 349 225 349 225 349 266 c 0,8,9
 349 306 349 306 336.5 338 c 128,-1,10
 324 370 324 370 296 404.5 c 128,-1,11
 268 439 268 439 218 473 c 5,12,-1
 134 415 l 5,13,-1
 94 452 l 1,14,-1
 218 538 l 1,15,16
 300 489 300 489 349.5 447 c 128,-1,17
 399 405 399 405 421 361.5 c 128,-1,18
 443 318 443 318 443 266 c 0,19,20
 443 210 443 210 418 165 c 0,21,22
 393 121 393 121 343 82 c 0,23,24
 293 43 293 43 218 1 c 1,0,-1
EndSplineSet
Validated: 1
EndChar

StartChar: u10CDC
Encoding: 68828 68828 95
Width: 402
LayerCount: 2
Fore
SplineSet
181 1 m 1,0,1
 181 0 181 0 21 176 c 1,2,-1
 137 316 l 1,3,-1
 180 267 l 1,4,-1
 106 181 l 1,5,-1
 188 91 l 1,6,7
 237 135 237 135 256 177 c 128,-1,8
 275 219 275 219 275 264 c 128,-1,9
 275 309 275 309 263 342.5 c 128,-1,10
 251 376 251 376 221.5 410 c 128,-1,11
 192 444 192 444 140 488 c 1,12,-1
 181 542 l 1,13,14
 309 446 309 446 344 361 c 0,15,16
 361 317 361 317 361 268 c 0,17,18
 361 188 361 188 316.5 126.5 c 128,-1,19
 272 65 272 65 181 1 c 1,0,1
EndSplineSet
Validated: 33
EndChar

StartChar: u10CDD
Encoding: 68829 68829 96
Width: 285
LayerCount: 2
Fore
SplineSet
245 407 m 1,0,-1
 125 169 l 1,1,-1
 248 50 l 1,2,-1
 199 -2 l 1,3,-1
 45 167 l 1,4,-1
 165 407 l 1,5,6
 165 406 165 406 66 500 c 1,7,-1
 109 540 l 1,8,-1
 245 407 l 1,0,-1
EndSplineSet
Validated: 37
EndChar

StartChar: u10CDE
Encoding: 68830 68830 97
Width: 385
LayerCount: 2
Fore
SplineSet
135 249 m 1,0,-1
 135 0 l 1,1,-1
 45 0 l 1,2,-1
 45 540 l 1,3,-1
 135 540 l 1,4,-1
 135 314 l 1,5,-1
 276 536 l 1,6,-1
 331 536 l 1,7,-1
 177 284 l 1,8,-1
 338 2 l 1,9,-1
 283 2 l 1,10,-1
 135 249 l 1,0,-1
EndSplineSet
Validated: 1
EndChar

StartChar: u10CDF
Encoding: 68831 68831 98
Width: 566
LayerCount: 2
Fore
SplineSet
236 1 m 5,0,-1
 32 160 l 5,1,-1
 34 160 l 5,2,-1
 30 162 l 5,3,-1
 183 297 l 5,4,-1
 231 258 l 5,5,6
 230 258 230 258 124 165 c 5,7,-1
 242 70 l 5,8,9
 266 88 266 88 285 104.5 c 132,-1,10
 304 121 304 121 318 138 c 5,11,-1
 275 169 l 5,12,-1
 311 203 l 5,13,-1
 346 178 l 5,14,15
 366 218 366 218 366 264 c 4,16,17
 366 312 366 312 344 352 c 5,18,-1
 311 328 l 5,19,-1
 275 362 l 5,20,-1
 316 391 l 5,21,22
 295 414 295 414 264 439.5 c 4,23,24
 232 465 232 465 190 494 c 5,25,-1
 236 538 l 5,26,27
 280 508 280 508 313 482 c 132,-1,28
 346 456 346 456 369 430 c 5,29,-1
 457 477 l 5,30,-1
 494 443 l 5,31,-1
 409 391 l 5,32,33
 436 361 436 361 448 330 c 132,-1,34
 460 299 460 299 460 264 c 4,35,36
 460 196 460 196 408 140 c 5,37,-1
 496 86 l 5,38,-1
 452 53 l 5,39,-1
 367 103 l 5,40,41
 343 78 343 78 310.5 53 c 132,-1,42
 278 28 278 28 236 1 c 5,0,-1
EndSplineSet
Validated: 1
EndChar

StartChar: u10CE0
Encoding: 68832 68832 99
Width: 399
LayerCount: 2
Fore
SplineSet
265 337 m 1,0,-1
 43 181 l 1,1,-1
 43 241 l 1,2,-1
 265 400 l 1,3,-1
 265 472 l 1,4,-1
 43 316 l 1,5,-1
 43 376 l 1,6,-1
 279 541 l 1,7,-1
 355 541 l 1,8,-1
 355 0 l 1,9,-1
 265 0 l 1,10,-1
 265 202 l 1,11,-1
 43 46 l 1,12,-1
 43 106 l 1,13,-1
 265 264 l 1,14,-1
 265 337 l 1,0,-1
EndSplineSet
Validated: 1
EndChar

StartChar: u10CE1
Encoding: 68833 68833 100
Width: 663
LayerCount: 2
Fore
SplineSet
335 59 m 1,0,1
 384 104 384 104 422 167 c 128,-1,2
 460 230 460 230 460 283 c 128,-1,3
 460 336 460 336 421 402 c 128,-1,4
 382 468 382 468 335 508 c 1,5,-1
 333 508 l 1,6,7
 287 467 287 467 247.5 401.5 c 128,-1,8
 208 336 208 336 208 283 c 128,-1,9
 208 230 208 230 247 165 c 128,-1,10
 286 100 286 100 333 59 c 1,11,-1
 335 59 l 1,0,1
544 218 m 1,12,13
 532 173 532 173 496 125 c 1,14,-1
 580 39 l 1,15,-1
 526 0 l 1,16,-1
 444 82 l 1,17,-1
 355 0 l 1,18,-1
 306 0 l 1,19,-1
 223 82 l 1,20,21
 224 82 224 82 140 0 c 1,22,-1
 91 39 l 1,23,24
 90 39 90 39 176 125 c 1,25,26
 140 170 140 170 128 218 c 1,27,-1
 91 167 l 1,28,-1
 22 167 l 1,29,-1
 120 289 l 1,30,31
 122 366 122 366 174 426 c 1,32,-1
 71 374 l 1,33,34
 72 374 72 374 20 375 c 1,35,-1
 332 550 l 1,36,-1
 652 373 l 1,37,-1
 601 374 l 1,38,39
 600 374 600 374 496 428 c 1,40,41
 550 366 550 366 552 289 c 1,42,-1
 650 167 l 1,43,-1
 580 167 l 1,44,-1
 544 218 l 1,12,13
EndSplineSet
Validated: 37
EndChar

StartChar: u10CE2
Encoding: 68834 68834 101
Width: 489
LayerCount: 2
Fore
SplineSet
352 312 m 1,0,-1
 133 151 l 1,1,-1
 133 -1 l 1,2,-1
 43 -1 l 1,3,-1
 43 540 l 1,4,-1
 133 540 l 1,5,-1
 133 214 l 1,6,-1
 352 375 l 1,7,-1
 352 536 l 1,8,-1
 442 536 l 1,9,-1
 442 -5 l 1,10,-1
 352 -5 l 1,11,-1
 352 312 l 1,0,-1
EndSplineSet
Validated: 1
EndChar

StartChar: u10CE3
Encoding: 68835 68835 102
Width: 310
LayerCount: 2
Fore
SplineSet
45 122 m 1,0,-1
 45 201 l 1,1,-1
 265 413 l 1,2,-1
 265 334 l 1,3,-1
 45 122 l 1,0,-1
EndSplineSet
Validated: 1
EndChar

StartChar: u10CE4
Encoding: 68836 68836 103
Width: 463
LayerCount: 2
Fore
SplineSet
193 542 m 1,0,-1
 193 542 l 1,1,-1
 282 542 l 1,2,-1
 459 1 l 1,3,-1
 389 1 l 1,4,-1
 246 439 l 1,5,-1
 95 1 l 1,6,7
 96 1 96 1 2 1 c 1,8,-1
 188 542 l 1,9,-1
 193 542 l 1,0,-1
EndSplineSet
Validated: 33
EndChar

StartChar: u10CE5
Encoding: 68837 68837 104
Width: 178
LayerCount: 2
Fore
SplineSet
45 0 m 1,0,-1
 45 541 l 1,1,-1
 133 541 l 1,2,-1
 133 0 l 1,3,-1
 45 0 l 1,0,-1
EndSplineSet
Validated: 1
EndChar

StartChar: u10CE6
Encoding: 68838 68838 105
Width: 318
LayerCount: 2
Fore
SplineSet
184 541 m 1,0,-1
 274 541 l 1,1,-1
 274 0 l 1,2,-1
 184 0 l 1,3,-1
 184 296 l 1,4,-1
 38 539 l 1,5,-1
 95 539 l 1,6,7
 96 538 96 538 184 388 c 1,8,-1
 184 541 l 1,0,-1
EndSplineSet
Validated: 1
EndChar

StartChar: u10CE7
Encoding: 68839 68839 106
Width: 558
LayerCount: 2
Fore
SplineSet
45 373 m 1,0,-1
 143 535 l 1,1,-1
 236 387 l 1,2,-1
 235 538 l 1,3,-1
 325 538 l 1,4,-1
 326 387 l 1,5,-1
 417 535 l 1,6,-1
 513 371 l 1,7,-1
 463 371 l 1,8,-1
 417 450 l 1,9,-1
 325 320 l 1,10,-1
 329 2 l 1,11,-1
 239 2 l 1,12,-1
 235 320 l 1,13,-1
 143 446 l 1,14,-1
 95 373 l 1,15,-1
 45 373 l 1,0,-1
EndSplineSet
Validated: 1
EndChar

StartChar: u10CE8
Encoding: 68840 68840 107
Width: 369
LayerCount: 2
Fore
SplineSet
134 0 m 1,0,-1
 216 166 l 1,1,-1
 190 217 l 1,2,-1
 82 2 l 1,3,-1
 7 2 l 1,4,-1
 153 290 l 1,5,-1
 28 532 l 1,6,-1
 103 532 l 1,7,-1
 140 460 l 1,8,-1
 176 531 l 1,9,-1
 233 531 l 1,10,-1
 168 405 l 1,11,-1
 191 362 l 1,12,-1
 278 531 l 1,13,-1
 352 531 l 1,14,15
 352 532 352 532 227 290 c 1,16,-1
 374 2 l 1,17,-1
 299 2 l 1,18,-1
 245 111 l 1,19,-1
 191 0 l 1,20,-1
 134 0 l 1,0,-1
EndSplineSet
Validated: 37
EndChar

StartChar: u10CE9
Encoding: 68841 68841 108
Width: 369
LayerCount: 2
Fore
SplineSet
248 482 m 1,0,-1
 170 440 l 1,1,-1
 170 501 l 1,2,-1
 227 531 l 1,3,-1
 279 532 l 1,4,-1
 279 531 l 1,5,-1
 347 531 l 1,6,-1
 223 290 l 1,7,-1
 369 1 l 1,8,-1
 227 0 l 1,9,-1
 170 36 l 1,10,-1
 170 97 l 1,11,12
 170 98 170 98 281 48 c 1,13,-1
 185 217 l 1,14,-1
 77 1 l 1,15,-1
 2 1 l 1,16,-1
 149 290 l 1,17,-1
 23 532 l 1,18,-1
 98 532 l 1,19,-1
 186 362 l 1,20,-1
 248 482 l 1,0,-1
EndSplineSet
Validated: 33
EndChar

StartChar: u10CEA
Encoding: 68842 68842 109
Width: 495
LayerCount: 2
Fore
SplineSet
133 458 m 1,0,-1
 133 74 l 1,1,-1
 248 212 l 1,2,-1
 360 78 l 1,3,-1
 360 453 l 1,4,5
 360 454 360 454 248 320 c 1,6,-1
 133 458 l 1,0,-1
51 0 m 1,7,-1
 45 0 l 1,8,-1
 45 536 l 1,9,-1
 133 536 l 1,10,-1
 133 534 l 1,11,-1
 135 534 l 1,12,-1
 249 399 l 1,13,-1
 360 531 l 1,14,15
 360 532 360 532 360 536 c 1,16,-1
 448 536 l 1,17,-1
 448 534 l 1,18,-1
 450 534 l 1,19,-1
 448 531 l 1,20,-1
 448 0 l 1,21,-1
 450 -3 l 1,22,-1
 363 -3 l 1,23,-1
 249 132 l 1,24,-1
 135 -3 l 1,25,-1
 48 -3 l 1,26,-1
 51 0 l 1,7,-1
EndSplineSet
Validated: 33
EndChar

StartChar: u10CEB
Encoding: 68843 68843 110
Width: 495
LayerCount: 2
Fore
SplineSet
452 9 m 1,0,-1
 455 2 l 1,1,-1
 452 2 l 1,2,-1
 452 0 l 1,3,-1
 364 0 l 1,4,-1
 364 9 l 1,5,-1
 250 215 l 1,6,-1
 136 11 l 1,7,-1
 136 0 l 1,8,-1
 45 0 l 1,9,-1
 45 2 l 1,10,-1
 44 2 l 1,11,-1
 45 4 l 1,12,-1
 45 536 l 1,13,-1
 44 538 l 1,14,-1
 45 538 l 1,15,-1
 45 541 l 1,16,-1
 135 541 l 1,17,-1
 135 534 l 1,18,19
 136 534 136 534 250 332 c 1,20,-1
 364 536 l 1,21,-1
 364 544 l 1,22,-1
 452 544 l 1,23,-1
 452 9 l 1,0,-1
135 417 m 1,24,-1
 136 130 l 1,25,-1
 216 273 l 1,26,-1
 135 417 l 1,24,-1
364 129 m 1,27,-1
 364 420 l 1,28,-1
 282 274 l 1,29,-1
 364 129 l 1,27,-1
EndSplineSet
Validated: 1
EndChar

StartChar: u10CEC
Encoding: 68844 68844 111
Width: 516
LayerCount: 2
Fore
SplineSet
255 66 m 1,0,1
 305 120 305 120 333.5 159.5 c 128,-1,2
 362 199 362 199 362 246 c 256,3,4
 362 292 362 292 336.5 338.5 c 128,-1,5
 311 385 311 385 258 441 c 1,6,7
 208 385 208 385 182.5 339 c 128,-1,8
 157 293 157 293 157 246 c 256,9,10
 157 198 157 198 179 160 c 0,11,12
 204 117 204 117 255 66 c 1,0,1
310 1 m 9,13,14
 202 1 202 1 202 1 c 17,15,16
 162 47 162 47 135 94 c 1,17,18
 135 94 135 94 65 1 c 1,19,-1
 26 53 l 1,20,21
 96 148 96 148 95 148 c 1,22,23
 21 250 21 250 108 375 c 1,24,25
 108 375 108 375 30 460 c 1,26,-1
 63 505 l 1,27,-1
 141 426 l 1,28,29
 152 445 152 445 214 515 c 1,30,31
 245 512 245 512 298 515 c 1,32,33
 360 446 360 446 371 426 c 1,34,35
 371 426 371 426 449 505 c 1,36,-1
 482 460 l 1,37,-1
 404 375 l 1,38,39
 487 251 487 251 417 148 c 1,40,41
 417 148 417 148 486 53 c 1,42,43
 446 1 446 1 447 1 c 1,44,45
 377 94 377 94 377 94 c 1,46,47
 350 47 350 47 310 1 c 9,13,14
EndSplineSet
Validated: 37
EndChar

StartChar: u10CED
Encoding: 68845 68845 112
Width: 390
LayerCount: 2
Fore
SplineSet
44 532 m 1,0,-1
 132 532 l 1,1,-1
 132 256 l 1,2,-1
 349 367 l 1,3,-1
 349 1 l 1,4,-1
 261 1 l 1,5,-1
 261 277 l 1,6,-1
 44 166 l 1,7,-1
 44 532 l 1,0,-1
EndSplineSet
Validated: 1
EndChar

StartChar: u10CEE
Encoding: 68846 68846 113
Width: 496
LayerCount: 2
Fore
SplineSet
360 453 m 1,0,1
 360 454 360 454 248 320 c 1,2,-1
 133 458 l 1,3,-1
 133 -3 l 1,4,-1
 45 -3 l 1,5,6
 45 -2 45 -2 45 536 c 1,7,-1
 133 536 l 1,8,-1
 133 534 l 1,9,-1
 135 534 l 1,10,-1
 249 399 l 1,11,-1
 360 531 l 1,12,13
 360 532 360 532 360 536 c 1,14,-1
 448 536 l 1,15,-1
 448 534 l 1,16,-1
 448 531 l 1,17,-1
 446 -2 l 1,18,-1
 360 -3 l 1,19,-1
 360 453 l 1,0,1
EndSplineSet
Validated: 33
EndChar

StartChar: u10CEF
Encoding: 68847 68847 114
Width: 489
LayerCount: 2
Fore
SplineSet
133 101 m 1,0,1
 133 102 133 102 352 262 c 1,2,-1
 352 324 l 1,3,-1
 133 166 l 1,4,-1
 133 101 l 1,0,1
352 388 m 1,5,-1
 352 454 l 1,6,-1
 133 294 l 1,7,-1
 133 227 l 1,8,-1
 352 388 l 1,5,-1
352 517 m 1,9,-1
 352 536 l 1,10,-1
 442 536 l 1,11,-1
 442 -5 l 1,12,-1
 352 -5 l 1,13,-1
 352 199 l 1,14,-1
 133 39 l 1,15,-1
 133 -1 l 1,16,-1
 43 -1 l 1,17,-1
 43 540 l 1,18,-1
 133 540 l 1,19,-1
 133 356 l 1,20,-1
 352 517 l 1,9,-1
EndSplineSet
Validated: 1
EndChar

StartChar: u10CF0
Encoding: 68848 68848 115
Width: 457
LayerCount: 2
Fore
SplineSet
274 340 m 1,0,-1
 274 0 l 1,1,-1
 184 0 l 1,2,-1
 184 342 l 1,3,-1
 38 541 l 1,4,-1
 98 541 l 1,5,-1
 184 423 l 1,6,-1
 184 541 l 1,7,-1
 274 541 l 1,8,-1
 274 419 l 1,9,-1
 360 541 l 1,10,-1
 418 541 l 1,11,-1
 418 539 l 1,12,-1
 274 340 l 1,0,-1
EndSplineSet
Validated: 1
EndChar

StartChar: u10CF1
Encoding: 68849 68849 116
Width: 556
LayerCount: 2
Fore
SplineSet
416 536 m 1,1,-1
 511 409 l 1,2,-1
 461 409 l 1,3,4
 461 408 461 408 416 472 c 1,5,-1
 325 370 l 1,6,-1
 321 260 l 1,7,-1
 416 373 l 1,8,9
 416 372 416 372 511 244 c 1,10,-1
 461 244 l 1,11,-1
 416 305 l 1,12,-1
 320 182 l 1,13,-1
 321 72 l 1,14,-1
 416 214 l 1,15,-1
 511 75 l 1,16,-1
 461 75 l 1,17,-1
 416 136 l 1,18,-1
 323 0 l 1,19,-1
 235 0 l 1,20,-1
 144 132 l 1,21,-1
 95 76 l 1,22,-1
 45 76 l 1,23,-1
 143 214 l 1,24,-1
 236 72 l 1,25,-1
 235 182 l 1,26,-1
 144 302 l 1,27,-1
 95 246 l 1,28,-1
 45 246 l 1,29,-1
 143 373 l 1,30,-1
 236 260 l 1,31,-1
 235 370 l 1,32,-1
 144 469 l 1,33,-1
 95 410 l 1,34,-1
 45 410 l 1,35,-1
 143 536 l 1,36,-1
 236 424 l 1,37,-1
 235 541 l 1,38,-1
 325 541 l 1,39,40
 324 426 324 426 326 426 c 0,41,0
 371 480 371 480 416 536 c 1,1,-1
EndSplineSet
Validated: 33
EndChar

StartChar: u10CF2
Encoding: 68850 68850 117
Width: 552
LayerCount: 2
Fore
SplineSet
321 77 m 1,0,1
 355 121 355 121 384.5 179.5 c 128,-1,2
 414 238 414 238 414 270 c 128,-1,3
 414 302 414 302 385.5 361.5 c 128,-1,4
 357 421 357 421 320 463 c 1,5,-1
 321 77 l 1,0,1
231 463 m 1,6,7
 195 420 195 420 166.5 360.5 c 128,-1,8
 138 301 138 301 138 271 c 128,-1,9
 138 241 138 241 168 181 c 128,-1,10
 198 121 198 121 230 79 c 1,11,-1
 231 463 l 1,6,7
238 1 m 1,12,13
 138 75 138 75 91.5 138.5 c 128,-1,14
 45 202 45 202 45 271 c 128,-1,15
 45 340 45 340 89.5 403 c 128,-1,16
 134 466 134 466 229 537 c 1,17,-1
 319 537 l 1,18,19
 418 466 418 466 462.5 401.5 c 128,-1,20
 507 337 507 337 507 267 c 128,-1,21
 507 197 507 197 463 135 c 256,22,23
 419 73 419 73 320 1 c 1,24,-1
 238 1 l 1,12,13
EndSplineSet
Validated: 1
EndChar
